<?xml version="1.0" encoding="utf-8"?>
<!-- Generator: Adobe Illustrator 22.0.0, SVG Export Plug-In . SVG Version: 6.00 Build 0)  -->
<svg version="1.1" xmlns="http://www.w3.org/2000/svg" xmlns:xlink="http://www.w3.org/1999/xlink" x="0px" y="0px"
	 viewBox="0 0 1754 1330" style="enable-background:new 0 0 1754 1330;" xml:space="preserve">
<style type="text/css">
	.st0{fill:#FFFFFF;}
</style>
<g id="Background_xA0_Image_1_">
	<g>
		<g>
			<path class="st0" d="M1,1c584.7,0,1169.3,0,1754,0c0,443.3,0,886.7,0,1330c-584.7,0-1169.3,0-1754,0C1,887.7,1,444.3,1,1z
				 M1204.4,475c-0.1,0.6-0.2,1.2-0.4,1.8c-11-2.6-21.9-5.3-32.9-7.6c-16.9-3.6-33.9-7-50.8-10.7c-1.2-0.3-2.1-1.6-3.2-2.4
				c1.1-0.7,2.2-1.7,3.5-2.1c4.1-1.1,8.7-1.3,12.5-3.1c16.1-7.5,31.6-16,47.9-23.1c26.8-11.6,45.7-32.7,64.9-53.4
				c1.6-1.7,1.4-5.2,2-7.8c-3.2,0.1-7.3-1-9.6,0.6c-10.4,6.9-20.8,13.9-30.2,22c-24.1,20.8-51.3,36.2-81.5,45.8
				c-12.2,3.8-24.5,3.3-35.5-4.9c-7.4-5.5-14.4-4.5-20.4,2c-1,1.1-1,4.9,0,5.8c5.3,4.9,11.1,9.3,16.7,13.9c0.9,0.8,1.5,1.9,2.2,2.8
				c-1.3,0.4-2.7,1.2-3.9,1c-3.6-0.5-7.2-1.6-10.8-2c-1.8-0.2-4.7,0-5.3,1.1c-0.8,1.5-0.5,4.1,0.2,6c1.8,4.6,3.4,9.5,6.3,13.5
				c2.3,3.2,6.1,6.6,9.7,7.4c15.1,3.3,30.4,5.5,45.6,8.4c43.6,8.3,87.1,17,130.8,25c44.6,8.1,89.4,15.1,134,23.4
				c25.8,4.8,51.5,10.3,76.9,17.1c21.7,5.9,43,13.6,64.2,21.4c13,4.9,14,7.7,10.2,21.2c-9.5,33.6-19.4,67-29.2,100.5
				c-2,6.7-4.9,9.4-13,6.5c-25.3-9.1-50.8-17.8-76.6-25.3c-18.6-5.4-37.9-8.8-56.9-12.9c-17.6-3.8-35.2-7.9-52.9-11.1
				c-16.9-3-34.1-4.7-51-7.6c-31.8-5.5-63.5-12-95.4-17c-18.9-2.9-38.2-3.7-57.3-5.4c-11.7-1-23.3-1.9-35-3
				c-34.6-3.5-69.3-7.5-104-10.3c-5.7-0.5-13.2,2.5-17.4,6.4c-5.6,5.3-8.9,13-13,19.8c-0.8,1.3-1.1,2.9-1.6,4.4
				c1.4,0.4,2.7,1.2,4.1,1.2c14.6-0.5,29.1-1.8,43.7-1.7c20.3,0.1,40.6,0,60.7,2.1c30.9,3.2,61.6,8.1,92.4,12.2
				c19.2,2.6,38.5,4.5,57.7,7.5c15.4,2.5,30.6,6.3,45.9,9.5c18.9,3.9,37.8,7.4,56.6,11.9c3.3,0.8,8.3,5.8,8.1,8.6
				c-2,29.9-4.2,59.9-7.7,89.6c-1.5,12.9-5.3,25.8-9.5,38.1c-2.7,7.9,1.1,9.9,6.6,11.9c1.8,0.7,4,0.3,5.9,0.9
				c34.2,9.3,68.1,19.4,102.5,27.9c41,10.1,82.3,18.8,123.4,28.3c22.9,5.3,45.8,10.7,68.6,16.7c20.5,5.4,40.8,11.6,61.3,17.2
				c1.8,0.5,4-0.7,6-1.2c-0.4-1.8-0.4-3.9-1.4-5.5c-5.2-8.7-10.2-17.5-16-25.7c-16.1-22.4-32.6-44.5-48.7-66.9c-1-1.5-0.3-6,1.2-7.2
				c32.4-25.9,65.1-51.4,97.5-77.3c1.8-1.5,2.1-5.3,2.4-8.1c0.1-0.8-2.1-2.3-3.5-2.7c-26.4-7.1-52.8-14.2-79.3-21.2
				c-22.5-6-45-12-67.6-17.6c-3.8-1-7.2-0.4-5.4-6.2c11.5-37.4,22.5-74.9,34.5-112.1c2.9-9,4.7-13.2-7.5-15.9
				c-26.2-5.8-51.8-14.6-77.9-20.8c-43.5-10.3-87.3-19.6-130.9-29.2c-15.7-3.5-31.5-6.8-47.3-9.9c-23.9-4.7-47.9-9.1-71.9-13.7
				C1233.7,480.9,1219.1,477.9,1204.4,475z M495.9,467.3c0-0.3-0.1-0.6-0.1-0.9c-12.9,2.1-25.9,4.1-38.8,6.4
				c-35.7,6.6-71.6,12.7-107.1,20.2c-22.5,4.8-44.7,11.4-66.8,17.9c-29.8,8.8-59.4,18.3-89.1,27.3c-6.2,1.9-8.5,5.4-6.2,11.6
				c6,16.2,12.8,32.1,17.8,48.6c7.1,23.5,12.9,47.3,19.1,71.1c0.3,1.2-1.7,4-3.1,4.4c-11.8,3.4-23.7,6.7-35.7,9.5
				c-30.9,7.3-61.8,14.2-92.7,21.4c-8.4,2-16.8,4.1-25,6.7c-2.1,0.6-3.6,3.1-5.3,4.7c1.4,1.4,2.7,3.1,4.4,4.2
				c7.5,5,15.3,9.4,22.5,14.7c23.7,17.4,47.2,35,70.5,52.9c2.6,2,5.4,7.7,4.4,9.7c-5.4,10.3-11.7,20.1-18.1,29.8
				c-14.7,21.9-29.8,43.7-44.4,65.6c-1,1.5-0.8,5.1,0.4,6.6c1.3,1.7,4.6,3.2,6.5,2.7c23.2-5.1,46.2-10.7,69.3-16
				c29.6-6.8,59.3-13.2,88.9-20.1c31.4-7.3,62.8-14.6,94.1-22.4c16.8-4.1,33.2-9.5,50-13.6c22-5.5,44.3-9.9,66.2-15.8
				c3.2-0.8,7.1-7.3,6.8-10.9c-0.8-8.6-4.1-17-5.9-25.5c-6.7-33.2-13.3-66.5-19.6-99.8c-0.3-1.7,2-5.5,3.7-5.9
				c15.3-3.8,30.7-7.4,46.3-10.3c29.5-5.6,59.1-10.9,88.7-16c32.6-5.6,65.1-11.6,97.9-16.2c19.6-2.7,39.5-3,59.3-4.5
				c1.6-0.1,3.1-0.9,4.6-1.3c-0.7-1.6-1-3.8-2.2-4.7c-3.5-2.7-7.4-5.1-11.2-7.3c-9.8-5.7-18.5-13.5-31.5-10.8
				c-11.7,2.4-23.6,3.9-35.4,5.5c-31.7,4.2-63.5,8-95.2,12.4c-26.7,3.7-53.4,7.6-80,12.3c-26.1,4.6-52.1,9.9-78.1,15.4
				c-18.7,3.9-37.3,8-55.7,12.9c-31.2,8.3-62.2,17.4-93.2,26c-15,4.2-15.8,4.2-20.1-11c-4.3-15.1-6.6-30.8-10.9-45.9
				c-5.9-20.4-13.1-40.5-19.5-60.8c-0.4-1.4,0.6-4.5,1.8-5c15.7-6.7,31.1-14.7,47.5-19.3c31-8.7,62.5-15.5,93.9-22.9
				c17.8-4.2,35.6-7.8,53.5-11.7c18.7-4,37.2-8.5,56-11.9c23.4-4.2,46.9-7.7,70.4-11.2c37.9-5.8,76-11.1,113.8-17.1
				c12.9-2.1,28.7,2.7,36.8-13.3c1.9-3.7,4.4-7,6.7-10.5c-4.1-1.4-8.2-3-12.3-4.2c-1.4-0.4-3-0.1-4.5,0c-14.9,1-29.9,1.3-44.7,3.2
				c-28.6,3.6-57.2,8-85.7,12.4C538,459.7,517,463.6,495.9,467.3z M835.7,773.1c-2.1-15.6-3.8-30.9-15.3-43.1
				c-18.2-19.2-35.9-38.9-54.6-57.5c-11.2-11.1-23.6-21.3-36.4-30.6c-7-5.1-16-4.7-22.9,2.2c-5.6,5.6-11,11.4-16.4,17.2
				c-18.7,20.5-37.5,41-55.9,61.7c-11.4,12.8-11.4,17.1,0.2,28.8c23.1,23.3,47.2,45.6,69.5,69.6c14.8,15.9,32,20.7,52.8,19.8
				c20.2-0.9,40.5,0.3,60.7,1c3.7,0.1,7.9,2.1,10.7,4.5c6.1,5.3,11.2,11.8,17.3,17.2c5.4,4.7,3.7,7.8-0.5,12.2
				c-13.7,14.2-27,28.8-40.6,43.1c-3.2,3.4-5.8,8-12,4c-10.6-6.9-19.5-2.7-21.9,9.9c-0.5,2.7-1.1,5.8-2.7,7.8
				c-10.1,11.8-20.6,23.3-31,34.9c-13.6,15.2-27.4,30.2-40.9,45.5c-13.7,15.4-24.4,34.2-47,39.2c-2.7,0.6-5.7,5-6.1,8
				c-0.3,2.1,3.1,5.5,5.6,7.2c10.5,6.9,21.2,13.7,32.2,19.8c3.3,1.9,9.7,3.7,11.3,2.1c2.6-2.6,2.5-8,3.5-12.2
				c1.2-5.1,0.7-11.5,3.6-15c15.6-17.9,32.2-35,48.2-52.6c7.4-8.2,13.3-18,21.4-25.3c11.9-10.8,18.9-28,38.1-29.9
				c2.4-0.2,6.3-5.6,6-8.2c-0.8-8-0.5-14.5,5.4-21.2c13.9-15.6,26.7-32.2,40.1-48.2c0.9-1.1,4.8-1.3,5.7-0.4
				c15.3,15.5,30.4,31.2,45.2,47.2c1.4,1.5,1.2,6.1-0.1,8c-4.1,6.2-2.4,14.3,4.6,15c13,1.3,22.1,9.1,30.7,17.3
				c17.2,16.4,33.6,33.8,50.8,50.3c14.6,14,30.7,26.6,35.9,47.6c0.2,0.9,1,1.7,1.5,2.6c4.8,7.2,12.7,7.8,18.5,1.4
				c5.5-6.2,11.4-12.2,16.3-18.8c2.5-3.4,4.9-8.8,3.9-12.2c-1.1-3.6-5.9-7.6-9.8-8.7c-16.4-4.6-30.3-13.2-42-25.2
				c-16.5-17-32.4-34.7-48.6-52c-10-10.7-19.4-21.5-20.6-37.3c-0.8-10.1-8.2-13.1-16.1-6.6c-7.4,6-12.7,5.3-18.9-1.7
				c-9.7-10.9-20.3-21.1-30.2-31.7c-10.8-11.6-10.9-12-0.6-23.1c11.5-12.4,23.5-24.4,35.6-36.3c1.5-1.5,4.8-1.3,7.2-1.7
				c6.6-1.1,14.8-0.1,19.6-3.7c19.2-14.4,37.9-29.6,55.7-45.6c16.8-15.1,32.3-31.6,48.2-47.7c5.2-5.3,10.5-10.8,14.4-17
				c3.1-4.9-0.2-7.6-5.6-6.6c-2.5,0.5-5.4,1.5-7.2,3.2c-6.8,6.4-13.5,12.8-19.7,19.8c-21.7,24-43.2,48.1-73.1,62.3
				c-4.4,2.1-12.3,3.1-15,0.7c-3.8-3.5-6.5-11-5.6-16.1c1.4-7.6,5.8-14.9,9.8-21.8c16.2-27.5,35.5-52.6,58.7-74.6
				c2.9-2.8,5.3-6.6,6.5-10.5c0.5-1.7-2.5-4.6-3.9-6.9c-3.8,2.6-8.3,4.7-11.3,8c-28.2,31.9-56.5,63.6-83.8,96.2
				c-10.2,12.2-18.6,26.4-9.2,43.8c1.1,2-0.2,6.6-1.9,8.6c-11.7,13.5-23.7,26.8-36,39.8c-1.4,1.5-6.5,1.7-8,0.4
				c-7.5-6.8-14.4-14.3-21.3-21.7c-1.3-1.3-2.5-3.4-2.5-5.1C835.6,807,835.7,790.1,835.7,773.1z M1038.6,309.9
				c-0.5-0.7-0.9-1.3-1.4-2c-2.9,1.8-5.7,4-8.9,5.3c-3.3,1.4-6.9,1.9-10.4,2.8c-0.1-2.3-0.2-4.5-0.5-6.8c-0.2-1-1-1.8-1.5-2.7
				c-0.8,0.7-1.9,1.2-2.5,2c-2,3.3-3.9,6.5-5.5,10c-3.4,7.1-6.4,14.4-9.9,21.4c-0.8,1.5-2.9,3.2-4.5,3.4c-14.9,2-29.9,3.6-44.8,5.6
				c-1.7,0.2-3.2,2.5-4.8,3.8c2,0.8,4,2,6.1,2.2c5.5,0.3,11.1-0.8,16.4,0.4c14.4,3.2,28.8,6.6,42.8,11.2c14.6,4.8,28.5,12.4,33,28.4
				c3.7,13.4,4.7,27.7,6.5,41.6c1.2,9.5-6.2,15.1-12.7,17.8c-4.1,1.7-12-2.3-16.3-6c-7.1-6-14.1-10.2-23.7-10.4
				c-5.9-0.1-12-1.3-17.5-3.3c-16.1-5.9-44.5,6-53.1,15.9c-3.6,4.2-7.1,8.7-11.5,12c-18.5,13.8-33.4,8.9-39.2-13.4
				c-2.8-10.7-3.5-21.9-5.4-32.9c-0.3-1.8-2.1-3.4-3.1-5.1c-1.3,1.3-3.1,2.4-3.8,4c-7.1,16.4-8.1,33.1-3.6,50.7
				c6.5,25.9,29.8,35.4,50.7,19.4c14.8-11.4,30.6-20.8,48.2-26.9c16.6-5.7,48.6-3.1,64.9,21.4c4.3,6.5,9.8,6.6,16.1,3.6
				c14.9-7.2,18.9-20.8,20-35.5c1.2-17.4-0.4-34.6-8.3-50.5c-5.2-10.4-10.6-20.8-17.5-30c-4.5-6-12-9.8-18-14.8c-1.3-1.1-2-3-3-4.5
				c1.9-0.9,3.7-2.5,5.6-2.7c2.6-0.2,5.2,0.9,7.8,1.1c7,0.6,14.1,2.2,20.9,1.5c13-1.4,12.9-2,11.3,11.5c-0.1,0.7-0.4,1.3-0.4,1.9
				c0,2,0.1,4.1,0.2,6.1c1.7-1.7,3.7-3.2,5.2-5.1c0.8-1.1,0.9-2.8,1.2-4.3c2.3-11.7,4.2-23.5,7.1-35c0.7-2.8,4.6-6.4,7.4-6.8
				c14.2-1.9,25.5-9.1,33.1-20.4c17.4-25.7,20.4-52.1,0.7-78.5c-0.8-1.1-2.3-1.6-3.4-2.4c-0.8,1.1-1.9,2.2-2.3,3.4
				c-2.6,8.8-5.1,17.6-7.6,26.4c-3.8,13.2-18.6,18.3-29,16.7c-8.4-1.3-12.7-0.8-8.6,9c0.1,0.1-0.4,0.5-1.7,2
				c-5.7-6.9-12-13-16.6-20.3c-6.3-10-14.8-15.4-26.2-15.9c-2.7-0.1-5.6,2.8-8.4,4.3c1.2,1.7,2.3,3.4,3.6,5c1.6,1.9,3.3,3.7,5,5.6
				c11.2,12.7,21.5,26.4,34,37.7c11,10.1,14.1,21.1,11.2,34.7c-0.3,1.6-1.7,4-2.9,4.2c-1.5,0.3-4.5-0.8-4.9-2
				c-1.1-3.1-1.1-6.7-1.3-8.2c-5.9,0-11.7,0-19.2,0C1036.3,313.2,1037.5,311.5,1038.6,309.9z M1142.3,727.9c0,0-0.1,0-0.1,0
				c0-7,0-14,0-21c0-7,0.5-14,0-21c-2-26.7,7.4-27.8-24-28.9c-5.5-0.2-8,2.1-7.6,7.7c1,13.4,2.5,26.9,2.5,40.3
				c0,31.3-0.8,62.5-1.3,93.8c-0.2,15.6-2.2,28.5-18,38.9c-24.7,16.3-46.5,37-69.8,55.4c-17.5,13.8-35.5,26.8-53.3,40.2
				c-4.2,3.1-6.2,6.3-1.6,11c3.1,3.2,5.5,7.1,8.2,10.6c7.3,9.4,9.8,9.4,19.1,1.3c4.2-3.7,8.9-6.9,13.4-10.3
				c17.5-13,35.4-25.5,52.5-38.9c25.2-19.8,50-40.2,74.7-60.7c2.8-2.3,4.4-6.8,5.3-10.5c0.9-4,0.1-8.4,0.1-12.7
				C1142.3,791.5,1142.3,759.7,1142.3,727.9z M599.2,650.8c-2.3,0.1-4.9-0.4-6.9,0.4c-3.7,1.6-9.7,3.6-10,6c-2,15.4-3.5,31-3.6,46.5
				c-0.2,20.7,1.3,41.5,1.3,62.2c0,30.1-0.7,60.1-0.7,90.2c0,2.3,2.2,5.5,4.3,6.7c7.5,4.2,15.7,7.2,23.1,11.6
				c37.5,21.7,74.9,43.6,112.1,65.8c5.9,3.5,11.1,8.5,16.6,12.7c4.8,3.7,14.1-0.2,20.2-8.3c8.7-11.6,8.1-15.3-4.2-22.6
				c-9.9-5.9-20.1-11.3-30-17.1c-34.4-20.2-68.6-40.8-103.1-60.7c-5.8-3.4-7.6-7.7-7.8-13.6c-0.9-28.1-2.3-56.1-2.5-84.2
				c-0.1-27.2,0.5-54.5,2.1-81.7C610.8,650.6,611.7,650.1,599.2,650.8z M739.2,411.7c-0.4-1.7-0.9-6.5-2.8-10.6
				c-1-2.3-4.2-4.3-6.8-4.8c-1.6-0.3-4.6,2.2-5.5,4.1c-8.8,19.8-14,40.7-14.3,62.2c-0.3,21.9,0.9,44,3.2,65.8
				c2.2,20.8,7.9,40.9,22,57.3c9.8,11.4,20.7,21.8,30.8,33c11.9,13.2,24.5,26,34.7,40.3c10.3,14.4,17.9,30.7,27,45.9
				c1.3,2.2,4.3,3.9,6.8,4.5c0.9,0.2,4-3.7,4-5.6c-0.5-11.2,0.1-22.9-3-33.4c-8-26.7-27.1-46.5-45.4-66.4
				c-10.1-11-21.2-21.1-31.8-31.7c-23.3-23.2-27.5-53-26.5-83.5C732.3,464.1,736.3,439.4,739.2,411.7z M642.9,401.9
				c13.9-3,25.5-4.9,36.7-8.2c15.5-4.6,30.8-10.2,46.1-15.5c1.3-0.4,2.5-1.5,3.3-2.7c3.5-5.3,4.5-11.7-0.9-15.1
				c-4.5-2.9-11.5-4.7-16.5-3.4c-8.3,2.2-15.9,7.3-23.8,11.1c-14.6,6.9-29.7,2.3-44.7,1.8c-18.6-0.6-36.2-4.6-52.5-13.7
				c-5.4-3-11.3-6.4-14.9-11.2c-9.6-12.5-17.6-26.2-27.1-38.8c-9.7-12.9-19.6-25.8-30.9-37.1c-7.3-7.2-17.3-11.6-26.4-16.9
				c-1.3-0.8-3.9,0.6-5.9,1c0.4,1.3,0.5,2.7,1.1,3.9c4.1,7.9,9.3,15.4,12.3,23.7c10.9,29.7,28.7,54.6,52.9,74.4
				c14.3,11.7,30.3,21.6,46.7,30C612.8,392.7,628.9,396.8,642.9,401.9z M885.2,581.4c6.7-0.9,15.1-1.9,23.4-3.5c1.6-0.3,2.7-3,4-4.5
				c-1.8-1-3.5-2.3-5.4-2.8c-1.7-0.4-3.8,0.7-5.4,0.2c-10.4-3.5-20.7-7.2-31-11c-0.6-0.2-0.8-3.8-0.5-3.9c3.6-1.5,7.5-2.4,11.1-3.8
				c1.4-0.5,2.4-1.9,3.6-2.9c-0.7-0.8-1.5-2.2-2.2-2.3c-7.5-0.2-15.5-1.7-22.5,0.2c-12.9,3.4-25.1,3.4-37-2.1
				c-19.6-9.1-32.3-25.7-37.9-45.4c-7.1-25-10.2-51-15.3-76.6c-2.7-13.6-7.6-26.3-19.3-35c-1.4-1-3.8-0.5-5.8-0.7
				c0.5,1.6,0.9,3.2,1.6,4.7c0.9,1.9,2.2,3.7,3.1,5.7c6.1,14.4,6.2,29.4,4.3,44.6c-3.4,26.4-1.8,52.1,10.2,76.7
				c5.1,10.3,7.8,21.7,12.1,32.4c3.6,9,8,17.8,12.2,26.5c0.5,1.1,2.5,1.5,3.8,2.2c0.3-1.5,1.2-3.2,0.8-4.5c-2.5-8.2-5.5-16.3-8-24.4
				c-0.5-1.6,0.1-3.6,0.2-5.4c1.5,0.9,3.1,1.6,4.4,2.7c8.1,6.3,15.6,13.6,24.3,18.9C835.2,580.2,859.7,578.9,885.2,581.4z
				 M881.8,1047.8c6.1-5,11.7-9.5,17.2-14.1c16.1-13.3,32.4-26.5,48.3-40.1c1.3-1.1,1.6-5.2,0.6-6.6c-4.8-6.5-10-12.7-15.7-18.4
				c-1.5-1.5-6-2-7.8-0.9c-10.3,6.7-20.6,13.4-30.1,21.1c-11.6,9.4-15,10.1-26.9,3.9c-16.5-8.6-33-17-49.9-24.9
				c-2.6-1.2-7.5,0.3-10.2,2.3c-5.5,3.9-9.9,9.3-15.2,13.5c-7,5.7-6.7,7.8,1.2,12.2c21.4,11.9,42.6,24.1,63.8,36.3
				c4.6,2.6,9,5.6,13.5,8.4C873.7,1042.7,876.9,1044.7,881.8,1047.8z M737.9,161.3c3.7,9.2,6.2,16,9.3,22.6
				c8,17.3,19,30.8,40.4,30.8c7.3,0,15.1-1.1,17-8.3c1.6-5.8,1.1-15.1-2.5-18.7c-6.2-6.2-15.3-11.3-23.9-13.1
				c-8.7-1.8-14.1-6.4-15.4-13.2c-2.2-11.4-1.7-23.2-2.4-34.9c-0.1-1.8-0.7-4-1.8-5.2c-0.6-0.7-3.4-0.3-4.4,0.5
				c-19.2,15.9-34.8,34.7-39.8,59.7c-2.8,14.1-4.4,28.7-3.9,43c0.4,10.1,3,21.5,13.1,27.4c6.9,4,14.7,6.7,22.5,8.7
				c6,1.6,18-8.4,16.1-13.3c-3.1-8-6.3-17.5-12.5-22.3c-14.5-11.3-19.1-24.9-16.3-42C734.5,176.3,736.1,169.8,737.9,161.3z
				 M868.5,741.2c0.8,0.3,1.6,0.6,2.4,0.9c-0.2,13.8,5,25.7,13.5,36.2c1,1.2,3.4,2.7,4.4,2.3c1.4-0.5,2.8-2.7,3.2-4.3
				c1.1-5.5,1.3-11.2,2.7-16.7c5.3-20.7,10.8-41.5,16.6-62.1c4.4-15.6,7.3-32.3,14.9-46.3c8.5-15.8,21.4-29.3,32.7-43.5
				c12.2-15.3,25.6-29.7,31.9-48.8c0.7-2.1-0.3-4.8-0.5-7.3c-2.9,0.9-6.4,1-8.7,2.7c-12.4,9.6-23.9,20.6-36.9,29.2
				c-22.3,14.8-36.7,35.1-40.2,61c-2.6,19.4-9.2,36.3-18.1,53.2C879.2,711.6,874.4,726.7,868.5,741.2z M527.2,208.1
				c-0.1,0.3-0.1,0.7-0.2,1c-2.5,0.2-5,0.3-7.5,0.6c-16.5,1.4-25.8,8.8-30.3,24.8c-0.6,2,0.8,4.5,1.2,6.8c1.9-0.8,3.8-1.4,5.6-2.3
				c1.8-0.8,3.4-2.6,5.2-2.7c12.2-1,24.6-3.3,36.5-2c21.9,2.5,43.1-0.2,64.4-3.8c16.7-2.9,32.9-1.4,46.5,9.3
				c12,9.4,22.7,20.4,33.8,30.8c8.9,8.3,19.3,10.8,30.9,8c2-0.5,4.7-3,4.8-4.7c0.2-2.1-1.6-4.8-3.2-6.5
				c-7.2-7.1-15.7-13.2-21.7-21.1c-9.6-12.6-20.8-23-35.1-29.5c-15.6-7.2-31.4-11.4-49.1-6c-16.7,5-33.8,7.5-51.4,2.2
				C547.8,209.9,537.3,209.5,527.2,208.1z M878.8,193.1c-15.2,3.5-28.9,6.2-42.4,9.8c-16.6,4.5-32.7,10.4-43.7,24.9
				c-12.6,16.6-17.4,35.8-18.5,56.1c-0.2,3.4,0.3,6.8,0.5,10.2c2.7-3,5.5-6,8.2-9.1c0.2-0.2,0.2-0.6,0.3-0.9
				c8-20.6,16.4-40.9,37-52.4c13.1-7.3,25.9-16.3,40.1-20.2c18.1-5,33.5,5.2,46.8,16.8c6.3,5.5,11.6,12.3,17.6,18.3
				c1.6,1.6,4.1,2.2,6.2,3.3c0.8-2.2,2.1-4.4,2.2-6.7c0.2-2.4-0.2-5.2-1.3-7.2c-2.5-4.3-6.4-7.9-8.1-12.4c-1.1-2.9,0.7-6.9,1.3-10.5
				c7.4,1.8,15.7,1.9,21.9,5.6c16.8,9.9,33.9,15.8,53.3,10.1c1.6-0.5,2.5-3,3.8-4.5c-1.4-1.1-2.6-2.6-4.2-3.2
				c-6.5-2.7-13.6-4.4-19.6-7.9c-12.6-7.4-24.8-14.1-40.3-10.3c-6.2,1.5-12.7,2.3-19.1,2.2c-5.6,0-11.4-1-16.8-2.6
				C895.3,199.8,887,196.2,878.8,193.1z M1073.8,359.7c-0.9,6.4,3.9,8.6,9.2,7.2c6.9-1.8,13.9-4.5,19.9-8.3
				c14.7-9.2,29.9-18.3,47.5-16.5c19.5,2,38.6,7.3,57.8,11c17.7,3.5,35.6,8.7,52.7-2c2-1.3,2.2-5.4,3.2-8.3c-2.1-0.4-4.3-1-6.4-1.1
				c-6.3-0.1-13.1,1.4-18.8-0.4c-10.5-3.2-20.2-10-30.8-12.1c-17-3.3-34.5-4.3-51.8-5.4c-7.6-0.5-15.4,0.7-22.9,2.2
				c-11.7,2.3-23.1,5.8-34.8,8.1C1084.7,336.9,1073.1,348,1073.8,359.7z M905.2,489.5c0.2,3.2-0.2,5.4,0.6,7.1
				c3.5,7.9,6.2,16.3,11.1,23.2c9.9,14,22.6,22.9,41.2,13.4c8.6-4.4,17-3.6,25.4,0.5c16.1,7.9,39.2-0.7,46-17.2
				c2.2-5.3,3.7-11,4.8-16.6c0.5-2.6-0.8-5.6-1.3-8.4c-3.1,1.5-6.4,2.6-9.2,4.5c-1.6,1.1-2.2,3.8-3.8,4.9
				c-8.9,5.9-18.3,6.9-28.9,4.6c-9-1.9-18.3-3.6-27.6,1.3c-7.3,3.8-15.6,7.1-23.7,7.7c-5.7,0.4-12.6-2.9-17.4-6.6
				C916.2,503.3,911.6,496.6,905.2,489.5z M650.8,329.5c6.4-1.3,12.8-2.5,19.1-4c1.5-0.3,2.9-1.4,4.3-2.1c-1.4-1-2.6-2.2-4.1-2.9
				c-11.9-5.7-24.3-10.6-35.7-17.2c-12.3-7.1-23.3-16.5-35.7-23.3c-11.8-6.5-27.1-5.8-36.9-17c-0.7-0.7-3.2-0.7-4.1-0.1
				c-0.8,0.6-1.1,3.1-0.5,4c4.2,6.2,7.7,13.5,13.4,17.8c14.7,11.1,31.2,20.1,45.7,31.5C626.6,324.6,637.9,327.8,650.8,329.5z
				 M800,319.4c-0.1,2.2-0.2,4.5-0.3,6.9c1.3,0,2.6,0.4,3.8,0c6.4-1.7,12.7-4.3,19.2-5.2c14.1-1.8,28.6-5.1,41,5.7
				c1,0.9,3.3,0.3,4.9,0.4c-0.5-1.7-0.5-4.1-1.6-5c-3.7-2.7-8.8-4.1-11.6-7.4c-2.5-3-2.6-7.9-3.5-12c0-0.2,3.7-1.9,4.3-1.4
				c5.7,5.2,11.1,10.7,16.4,16.3c1.9,2.1,3,4.9,4.4,7.4c0.2-3.3,0.6-6.7,0.6-10c0-0.9-0.7-1.8-1.1-2.8c-2.4-6.4-4.6-12.9-7.3-19.2
				c-0.5-1.1-2.9-1.5-4.4-2.2c-3.1,10.1-9.6,3.8-14.4,2.5c-2.4-0.7-4.2-4.3-6-6.8c-1.1-1.6-1.6-3.7-2.4-5.5c-1.1,2-2.3,4-3.2,6.1
				c-0.7,1.7-1.1,5.2-1.6,5.2c-7,0-14.1-0.4-21.1-0.7c-1.1-0.1-2.2-0.2-3.2-0.3c0,1.2-0.3,2.6,0.1,3.6c0.7,1.4,1.9,2.6,5.1,6.7
				c-6.2,0-9.8,0.1-13.5,0c-1.6-0.1-3.1-0.6-4.6-1c0.6,1.6,1.1,3.2,1.9,4.7c0.8,1.4,1.9,2.6,2.8,3.9c-1.5,0.9-3,2-4.6,2.5
				c-3,0.9-6,1.5-9.1,2.2C794,315.9,796.9,317.6,800,319.4z M1113.5,384.2c0.3,0.9,0.5,1.8,0.8,2.6c8.2-0.8,16.4-1.5,24.6-2.5
				c17.9-2.1,32.6-10.6,45.2-23.2c1-1,0.8-3.2,1.1-4.8c-1.5-0.2-3.2-0.9-4.5-0.5c-4,1.4-7.8,4.4-11.9,4.9c-18.2,2-36.5,3.6-54.8,4.6
				c-10.6,0.6-26.7,12.4-28.8,22.8c-0.3,1.4,0.3,3.4,1.2,4.4c0.6,0.7,2.7,0.4,3.9,0C1098,389.9,1105.7,387,1113.5,384.2z
				 M951.5,420.7c1-0.2,3.5-0.5,5.8-1.4c8-3.2,13.5-14.1,12.1-23.5c-1.3-8.4-10.8-17.2-19.4-18.4c-6.9-1-13.6-2.8-20.5-3.9
				c-0.7-0.1-2.8,2.1-2.7,3.1c0.8,8,2.4,16,3,24C930.7,412.5,938.2,420.3,951.5,420.7z M603.9,413.9c0.1,0,0.2,0,0.3,0
				c-0.3-5.5-0.5-11-1.2-16.4c-0.2-1.8-1.5-4.2-3-5.1c-4-2.3-8.2-4.2-12.5-5.8c-4.7-1.8-8.3-1.9-8.1,5.2c0.4,13.5,0,27.1,0.3,40.6
				c0.1,3.9,1,10.8,2.4,11c7.1,1.2,14.5,0.7,21.8,0.5c0.6,0,1.6-2.8,1.5-4.3C605.1,431,604.5,422.5,603.9,413.9z M1009.5,418.7
				c0.4,12.5,6.5,19,15.6,18.5c14.5-0.8,19-20.2,14.8-29.7c-2.6-5.9-5.4-11.7-8-17.6c-0.8-1.8-1-5.4-1.7-5.4
				c-2.3-0.1-5.8,0.2-6.8,1.6C1016.6,396.6,1008.9,407,1009.5,418.7z M808.6,262.2c0.8,1,1.5,1.9,2.3,2.9c1.3-0.5,2.6-1,3.8-1.7
				c19.1-10.7,32.5-12.3,49.2,3.7c5.3,5.1,12.6,8.2,19.3,11.8c1.3,0.7,3.8-0.8,5.8-1.4c-0.8-1.8-1.3-3.9-2.5-5.4
				c-3.3-4.3-6.9-8.3-10.5-12.4c-5.3-6.1-9.7-13.7-16.2-17.9c-11.3-7.3-22.2-0.2-32,5.3C820.8,251.1,815,257.1,808.6,262.2z
				 M725.1,265.2c-0.1,1.8-0.8,4-0.1,5.5c1.7,3.3,3.8,6.7,6.4,9.3c11.8,11.9,20.3,25,17.5,42.9c-0.3,2.1-0.4,4.6,0.6,6.4
				c1.3,2.4,3.3,5.4,5.7,6.1c1.9,0.6,5.5-1.3,7-3.1c13-16,4.5-44.3-15.7-50.8C737.4,278.5,729.5,275.5,725.1,265.2z M1015.9,272.6
				c-10.3,0.5-20.5,2-27.5,10.8c-2,2.5-4.4,7.2-3.4,9.2c2.6,5.2,7.2,4.6,12.3,1.9c11.7-6.2,23.7-8.4,35.7-0.3
				c4.3,2.9,8.5,5.8,13,8.2c1.4,0.7,3.8-0.3,5.8-0.5c-0.6-1.8-0.8-4.1-2-5.4c-4.3-4.5-9.4-8.3-13.2-13.2
				C1031.2,276.5,1025.3,271.7,1015.9,272.6z M775.8,402.2c-0.3,0-0.7,0-1,0c0,3.1-0.5,6.4,0.1,9.4c0.5,2.7,2.3,5.1,3.5,7.6
				c2.5-1.4,6.3-2.2,7.3-4.3c6.9-14.4,10.9-29.5,3.2-44.9c-3.5-7-8.5-13.1-13-19.6c-1.1-1.6-2.9-2.8-4.3-4.2
				c-0.3,2.1-1.4,4.3-0.9,6.1c1.3,5.1,4.5,9.9,4.8,14.9C776.3,378.9,775.8,390.6,775.8,402.2z M925.8,356
				c-12.9-0.4-25.2,7.7-34.5,20.8c-3.9,5.5-9.3,10.1-13.8,15.2c-1.7,1.9-2.8,4.3-4.2,6.4c2.4,0.6,5.5,2.5,7.1,1.6
				c5.5-2.9,10.5-6.6,15.5-10.3c9.6-7.1,19.3-14.2,28.6-21.7c2.3-1.9,3.9-5.2,4.7-8.1C929.4,358.7,926.6,356.8,925.8,356z"/>
			<path d="M1204.4,475c14.7,2.9,29.3,5.9,44,8.7c24,4.6,48,9,71.9,13.7c15.8,3.1,31.6,6.4,47.3,9.9c43.7,9.6,87.4,18.9,130.9,29.2
				c26.2,6.2,51.7,15,77.9,20.8c12.2,2.7,10.4,6.9,7.5,15.9c-12,37.2-22.9,74.8-34.5,112.1c-1.8,5.9,1.6,5.3,5.4,6.2
				c22.6,5.7,45.1,11.7,67.6,17.6c26.4,7,52.9,14.1,79.3,21.2c1.4,0.4,3.6,1.9,3.5,2.7c-0.3,2.8-0.6,6.6-2.4,8.1
				c-32.4,25.9-65.1,51.4-97.5,77.3c-1.5,1.2-2.3,5.8-1.2,7.2c16,22.4,32.6,44.5,48.7,66.9c5.9,8.2,10.8,17.1,16,25.7
				c0.9,1.5,0.9,3.6,1.4,5.5c-2,0.4-4.2,1.6-6,1.2c-20.5-5.6-40.8-11.9-61.3-17.2c-22.8-6-45.6-11.4-68.6-16.7
				c-41.1-9.5-82.4-18.2-123.4-28.3c-34.4-8.5-68.3-18.6-102.5-27.9c-1.9-0.5-4.1-0.2-5.9-0.9c-5.5-2-9.3-4.1-6.6-11.9
				c4.3-12.3,8-25.2,9.5-38.1c3.5-29.8,5.8-59.7,7.7-89.6c0.2-2.8-4.8-7.8-8.1-8.6c-18.7-4.5-37.7-8-56.6-11.9
				c-15.3-3.2-30.5-7-45.9-9.5c-19.1-3.1-38.5-5-57.7-7.5c-30.8-4.1-61.5-9.1-92.4-12.2c-20.1-2.1-40.5-2-60.7-2.1
				c-14.6-0.1-29.1,1.2-43.7,1.7c-1.3,0.1-2.7-0.8-4.1-1.2c0.5-1.5,0.8-3.1,1.6-4.4c4.1-6.8,7.4-14.6,13-19.8
				c4.2-4,11.7-6.9,17.4-6.4c34.7,2.8,69.3,6.8,104,10.3c11.6,1.2,23.3,2,35,3c19.1,1.7,38.4,2.5,57.3,5.4c31.9,5,63.6,11.5,95.4,17
				c16.9,2.9,34.1,4.6,51,7.6c17.7,3.2,35.3,7.3,52.9,11.1c19,4.1,38.3,7.5,56.9,12.9c25.8,7.5,51.3,16.2,76.6,25.3
				c8.1,2.9,11.1,0.3,13-6.5c9.8-33.5,19.7-66.9,29.2-100.5c3.8-13.5,2.8-16.3-10.2-21.2c-21.1-7.9-42.4-15.6-64.2-21.4
				c-25.3-6.8-51.1-12.3-76.9-17.1c-44.6-8.3-89.4-15.3-134-23.4c-43.7-8-87.2-16.7-130.8-25c-15.2-2.9-30.5-5.1-45.6-8.4
				c-3.7-0.8-7.4-4.2-9.7-7.4c-2.9-3.9-4.5-8.8-6.3-13.5c-0.7-1.8-1-4.5-0.2-6c0.6-1.1,3.5-1.3,5.3-1.1c3.6,0.4,7.2,1.5,10.8,2
				c1.2,0.2,2.6-0.7,3.9-1c-0.7-1-1.3-2.1-2.2-2.8c-5.6-4.6-11.4-9-16.7-13.9c-1-1-1-4.7,0-5.8c6-6.6,13-7.6,20.4-2
				c10.9,8.2,23.3,8.7,35.5,4.9c30.3-9.6,57.4-25,81.5-45.8c9.4-8.1,19.8-15.1,30.2-22c2.3-1.5,6.3-0.4,9.6-0.6
				c-0.6,2.6-0.4,6.1-2,7.8c-19.2,20.7-38,41.8-64.9,53.4c-16.2,7-31.8,15.6-47.9,23.1c-3.8,1.8-8.3,1.9-12.5,3.1
				c-1.2,0.3-2.3,1.4-3.5,2.1c1.1,0.8,2,2.2,3.2,2.4c16.9,3.6,33.9,7,50.8,10.7c11,2.4,21.9,5.1,32.9,7.6
				C1204.2,476.1,1204.3,475.6,1204.4,475z M1362.6,818.6c78.2,19.8,153.4,38.9,230.2,58.3c-1.5-3.4-2.1-5.2-3.1-6.9
				c-10.1-17.3-20.5-34.5-30.3-52.1c-1-1.8,0.4-6.7,2.2-8c10.5-7.6,21.9-13.9,32.1-21.7c12.9-9.9,25.1-20.9,37.6-31.4
				c2.7-2.3,5.5-4.6,9.3-7.7c-29.5-7.4-57.1-14.8-84.9-21.2c-17.8-4.1-17.7-3.4-23.1,13c-1.6,4.8-3.7,11.6-7.3,13.1
				c-41.2,16.5-82.8,32-124.2,48C1389,806.7,1377.2,812.3,1362.6,818.6z M1492.2,739.4c-5.2-2.1-7.9-3.5-10.8-4.3
				c-30.2-9.3-60.2-19.1-90.6-27.6c-13.3-3.7-27.4-4.7-41.2-6.3c-1.7-0.2-5.1,3.1-5.6,5.2c-5.5,28.5-10.7,57.1-15.7,85.7
				c-0.7,3.8-0.3,7.8-0.5,11.7c3.6-0.8,7.3-1.5,10.9-2.4c2.1-0.5,4.2-1.2,6.1-2.1c15.1-6.6,29.8-14,45.2-19.9
				c24.9-9.4,50.2-17.5,75.2-26.8C1473.9,749.5,1481.9,744.5,1492.2,739.4z"/>
			<path d="M495.9,467.3c21.1-3.7,42.1-7.6,63.2-10.9c28.5-4.5,57.1-8.8,85.7-12.4c14.8-1.9,29.8-2.2,44.7-3.2
				c1.5-0.1,3.1-0.4,4.5,0c4.1,1.3,8.2,2.8,12.3,4.2c-2.2,3.5-4.8,6.8-6.7,10.5c-8.1,16-23.9,11.2-36.8,13.3
				c-37.9,6-75.9,11.4-113.8,17.1c-23.5,3.6-47,7-70.4,11.2c-18.8,3.4-37.3,7.9-56,11.9c-17.8,3.9-35.7,7.5-53.5,11.7
				c-31.4,7.4-62.9,14.2-93.9,22.9c-16.4,4.6-31.8,12.6-47.5,19.3c-1.1,0.5-2.2,3.6-1.8,5c6.4,20.3,13.5,40.3,19.5,60.8
				c4.4,15.1,6.6,30.8,10.9,45.9c4.4,15.3,5.1,15.2,20.1,11c31.1-8.7,62.1-17.7,93.2-26c18.4-4.9,37.1-9,55.7-12.9
				c26-5.4,51.9-10.8,78.1-15.4c26.6-4.6,53.3-8.5,80-12.3c31.7-4.4,63.5-8.2,95.2-12.4c11.9-1.6,23.8-3,35.4-5.5
				c12.9-2.7,21.7,5.1,31.5,10.8c3.9,2.2,7.7,4.6,11.2,7.3c1.2,0.9,1.5,3.1,2.2,4.7c-1.5,0.4-3,1.2-4.6,1.3
				c-19.8,1.5-39.7,1.8-59.3,4.5c-32.7,4.6-65.3,10.6-97.9,16.2c-29.6,5.1-59.2,10.4-88.7,16c-15.5,2.9-30.9,6.5-46.3,10.3
				c-1.7,0.4-4,4.2-3.7,5.9c6.3,33.3,12.9,66.5,19.6,99.8c1.7,8.6,5.1,16.9,5.9,25.5c0.3,3.5-3.7,10-6.8,10.9
				c-21.9,5.9-44.2,10.3-66.2,15.8c-16.8,4.2-33.2,9.5-50,13.6c-31.3,7.7-62.7,15.1-94.1,22.4c-29.6,6.8-59.3,13.3-88.9,20.1
				c-23.1,5.3-46.2,10.9-69.3,16c-2,0.4-5.2-1.1-6.5-2.7c-1.2-1.5-1.4-5.1-0.4-6.6c14.7-22,29.7-43.7,44.4-65.6
				c6.5-9.7,12.8-19.5,18.1-29.8c1-2-1.8-7.7-4.4-9.7c-23.3-17.9-46.8-35.5-70.5-52.9c-7.2-5.3-15.1-9.7-22.5-14.7
				c-1.7-1.1-2.9-2.8-4.4-4.2c1.8-1.6,3.3-4,5.3-4.7c8.3-2.5,16.6-4.7,25-6.7c30.9-7.2,61.9-14.2,92.7-21.4
				c12-2.8,23.8-6.1,35.7-9.5c1.4-0.4,3.4-3.2,3.1-4.4c-6.1-23.8-11.9-47.6-19.1-71.1c-5-16.5-11.8-32.4-17.8-48.6
				c-2.3-6.2-0.1-9.7,6.2-11.6c29.7-9,59.3-18.6,89.1-27.3c22.1-6.5,44.3-13.1,66.8-17.9c35.5-7.5,71.4-13.6,107.1-20.2
				c12.9-2.4,25.9-4.3,38.8-6.4C495.8,466.7,495.9,467,495.9,467.3z M164.9,859.7c86.9-20.6,172.3-40.9,258.4-61.4
				c-1.6-0.8-2.8-1.6-4.1-2.1c-24.3-9-48.7-17.8-73-26.8c-27.4-10.1-54.8-20.5-82.3-30.3c-14.8-5.3-29.4-9.9-30.4-29.4
				c-0.1-1.1-4.7-3.3-6.5-2.7c-25.7,7.4-51.3,15.2-76.9,23c-1.8,0.5-3.4,1.5-5.8,2.6c4,3.7,7.1,7.3,10.8,9.9
				c18.2,13.1,36.5,26,54.6,39.3c1.5,1.1,2.5,5.7,1.5,7.3c-7.2,11.7-15.1,23-22.7,34.5C180.7,835.3,173.2,846.9,164.9,859.7z
				 M293.6,716.2c53.3,23,106,45.8,159.4,68.8c-0.2-2.2-0.1-3.6-0.4-5c-7.7-31.3-15.4-62.6-23.5-93.7c-0.4-1.7-4.9-3.9-6.8-3.4
				c-35.6,8.8-71.1,18-106.7,27.2C308.3,712.1,301,714.2,293.6,716.2z"/>
			<path d="M835.7,773.1c0,16.9-0.1,33.8,0.1,50.8c0,1.7,1.2,3.8,2.5,5.1c6.9,7.4,13.8,14.9,21.3,21.7c1.4,1.3,6.6,1.1,8-0.4
				c12.3-13,24.3-26.3,36-39.8c1.7-2,3-6.6,1.9-8.6c-9.4-17.4-1-31.6,9.2-43.8c27.3-32.6,55.6-64.4,83.8-96.2c3-3.4,7.5-5.4,11.3-8
				c1.4,2.3,4.5,5.2,3.9,6.9c-1.2,3.8-3.6,7.7-6.5,10.5c-23.2,22-42.6,47.1-58.7,74.6c-4.1,6.9-8.4,14.2-9.8,21.8
				c-0.9,5.1,1.8,12.6,5.6,16.1c2.7,2.4,10.6,1.4,15-0.7c29.9-14.2,51.5-38.3,73.1-62.3c6.2-6.9,12.9-13.4,19.7-19.8
				c1.8-1.7,4.6-2.7,7.2-3.2c5.3-1,8.6,1.7,5.6,6.6c-3.9,6.2-9.2,11.7-14.4,17c-15.9,16.1-31.5,32.5-48.2,47.7
				c-17.8,16.1-36.5,31.2-55.7,45.6c-4.8,3.6-13,2.5-19.6,3.7c-2.5,0.4-5.7,0.2-7.2,1.7c-12.1,11.9-24,23.9-35.6,36.3
				c-10.4,11.1-10.3,11.5,0.6,23.1c10,10.7,20.6,20.8,30.2,31.7c6.2,7.1,11.5,7.7,18.9,1.7c7.9-6.4,15.3-3.5,16.1,6.6
				c1.2,15.9,10.6,26.6,20.6,37.3c16.2,17.3,32.1,34.9,48.6,52c11.7,12,25.6,20.6,42,25.2c3.9,1.1,8.7,5.1,9.8,8.7
				c1,3.5-1.4,8.8-3.9,12.2c-4.8,6.7-10.7,12.6-16.3,18.8c-5.7,6.4-13.7,5.8-18.5-1.4c-0.6-0.8-1.3-1.6-1.5-2.6
				c-5.3-20.9-21.3-33.6-35.9-47.6c-17.2-16.4-33.5-33.8-50.8-50.3c-8.6-8.2-17.7-16-30.7-17.3c-6.9-0.7-8.7-8.8-4.6-15
				c1.3-1.9,1.5-6.6,0.1-8c-14.8-16-29.9-31.7-45.2-47.2c-0.9-0.9-4.8-0.6-5.7,0.4c-13.5,16-26.3,32.6-40.1,48.2
				c-5.9,6.7-6.3,13.2-5.4,21.2c0.3,2.6-3.6,8-6,8.2c-19.3,1.9-26.2,19.1-38.1,29.9c-8.1,7.4-14,17.1-21.4,25.3
				c-16,17.6-32.6,34.6-48.2,52.6c-3,3.4-2.5,9.9-3.6,15c-1,4.2-0.9,9.6-3.5,12.2c-1.6,1.6-8-0.2-11.3-2.1
				c-11-6.2-21.7-12.9-32.2-19.8c-2.5-1.6-5.9-5.1-5.6-7.2c0.4-3,3.5-7.5,6.1-8c22.6-5,33.3-23.8,47-39.2
				c13.5-15.3,27.3-30.3,40.9-45.5c10.4-11.6,20.8-23.1,31-34.9c1.7-2,2.2-5.1,2.7-7.8c2.4-12.5,11.3-16.8,21.9-9.9
				c6.1,4,8.8-0.7,12-4c13.6-14.3,26.9-28.9,40.6-43.1c4.2-4.4,5.9-7.4,0.5-12.2c-6.1-5.4-11.2-11.9-17.3-17.2
				c-2.8-2.4-7-4.4-10.7-4.5c-20.2-0.8-40.5-1.9-60.7-1c-20.8,0.9-38-3.8-52.8-19.8c-22.3-24-46.4-46.3-69.5-69.6
				c-11.6-11.7-11.6-16-0.2-28.8c18.5-20.7,37.2-41.2,55.9-61.7c5.3-5.8,10.7-11.6,16.4-17.2c7-6.9,15.9-7.2,22.9-2.2
				c12.8,9.3,25.2,19.4,36.4,30.6c18.8,18.6,36.4,38.3,54.6,57.5C831.9,742.2,833.5,757.5,835.7,773.1z M714.8,680.7
				c2,3.7,3.2,7.5,5.6,10.2c9,9.9,18.3,19.5,27.6,29.1c10,10.3,20.2,20.5,30.3,30.6c4.8,4.8,12.4,3.4,14.9-2.8
				c2.8-7.1,4-14.8-1.7-20.7C773,707.9,753.9,689,735,669.8c-5.6-5.7-10.8-1.2-15.3,1.3C717.2,672.5,716.5,677.1,714.8,680.7z
				 M770.5,778.2c-2.9-5.6-4.6-11.3-8.3-15.3c-11.7-12.5-23.9-24.5-36.3-36.2c-9.4-8.9-19.3-17.2-29.4-25.3c-1.9-1.6-7.1-2.5-8-1.4
				c-2.2,2.8-4.8,7.5-3.9,10.4c2.2,7.1,4.8,15.2,9.9,20.2c19.1,18.9,39.1,36.8,59.2,54.6c2.1,1.9,7.4,1.4,10.6,0.3
				C766.7,784.7,768.1,781.1,770.5,778.2z M736.4,807.7c-1.7-4.2-2.5-8.8-5.1-12c-11.3-14.2-22.8-28.4-34.9-41.9
				c-7.3-8.1-15.4-15.7-24.4-21.9c-3.5-2.4-11-2.1-15.2,0c-6.2,3.1-5.7,9.5-1,14.5c12.2,13.1,24.2,26.5,37.1,38.9
				c10,9.6,21,18.1,31.9,26.7c2,1.6,5.6,2,8.2,1.6C734.3,813.4,735.1,810.1,736.4,807.7z"/>
			<path d="M1038.6,309.9c-1.2,1.7-2.3,3.3-5.2,7.4c7.5,0,13.2,0,19.2,0c0.2,1.5,0.2,5.1,1.3,8.2c0.4,1.2,3.4,2.3,4.9,2
				c1.2-0.2,2.5-2.6,2.9-4.2c2.9-13.7-0.2-24.7-11.2-34.7c-12.4-11.4-22.8-25.1-34-37.7c-1.6-1.9-3.4-3.6-5-5.6
				c-1.3-1.6-2.4-3.3-3.6-5c2.8-1.5,5.7-4.4,8.4-4.3c11.4,0.5,20,5.9,26.2,15.9c4.5,7.3,10.9,13.4,16.6,20.3c1.3-1.5,1.7-1.9,1.7-2
				c-4.1-9.7,0.3-10.3,8.6-9c10.4,1.7,25.2-3.5,29-16.7c2.5-8.8,5-17.6,7.6-26.4c0.4-1.3,1.5-2.3,2.3-3.4c1.2,0.8,2.6,1.4,3.4,2.4
				c19.6,26.3,16.7,52.8-0.7,78.5c-7.7,11.3-18.9,18.4-33.1,20.4c-2.8,0.4-6.7,4-7.4,6.8c-2.9,11.5-4.8,23.3-7.1,35
				c-0.3,1.5-0.4,3.2-1.2,4.3c-1.4,1.9-3.4,3.4-5.2,5.1c-0.1-2-0.2-4.1-0.2-6.1c0-0.6,0.3-1.3,0.4-1.9c1.7-13.4,1.7-12.9-11.3-11.5
				c-6.9,0.7-14-0.8-20.9-1.5c-2.6-0.2-5.3-1.3-7.8-1.1c-1.9,0.1-3.7,1.7-5.6,2.7c1,1.5,1.7,3.4,3,4.5c6,5,13.4,8.8,18,14.8
				c6.9,9.2,12.3,19.7,17.5,30c7.9,15.9,9.5,33.1,8.3,50.5c-1,14.7-5.1,28.3-20,35.5c-6.2,3-11.8,2.9-16.1-3.6
				c-16.2-24.5-48.2-27.1-64.9-21.4c-17.7,6-33.4,15.5-48.2,26.9c-20.8,16-44.1,6.4-50.7-19.4c-4.4-17.5-3.5-34.2,3.6-50.7
				c0.7-1.6,2.5-2.7,3.8-4c1.1,1.7,2.8,3.3,3.1,5.1c1.9,10.9,2.6,22.2,5.4,32.9c5.8,22.3,20.7,27.2,39.2,13.4
				c4.4-3.3,7.9-7.8,11.5-12c8.6-10,37-21.8,53.1-15.9c5.5,2,11.6,3.2,17.5,3.3c9.6,0.2,16.6,4.4,23.7,10.4c4.3,3.7,12.2,7.6,16.3,6
				c6.5-2.7,14-8.3,12.7-17.8c-1.8-13.9-2.8-28.2-6.5-41.6c-4.4-16-18.3-23.5-33-28.4c-14-4.6-28.4-8-42.8-11.2
				c-5.2-1.2-10.9,0-16.4-0.4c-2.1-0.1-4-1.4-6.1-2.2c1.6-1.3,3-3.6,4.8-3.8c14.9-2,29.9-3.6,44.8-5.6c1.7-0.2,3.8-1.9,4.5-3.4
				c3.5-7,6.5-14.3,9.9-21.4c1.6-3.4,3.6-6.7,5.5-10c0.5-0.9,1.6-1.4,2.5-2c0.5,0.9,1.4,1.8,1.5,2.7c0.3,2.2,0.4,4.5,0.5,6.8
				c3.5-0.9,7.1-1.5,10.4-2.8c3.1-1.3,5.9-3.5,8.9-5.3C1037.7,308.6,1038.2,309.2,1038.6,309.9z M1032.5,335
				c3.3,2.9,6.2,7.6,9.8,8.2c4.2,0.7,9.2-1.8,13.6-3.7c0.9-0.4,1.2-5.1,0.1-6.4c-1.9-2.2-5.1-3.4-7.8-5
				C1041.4,324.1,1034.3,326.6,1032.5,335z M1095.7,284c-8.3-0.7-15.2-1.4-22.2-1.8c-0.6,0-1.9,2.2-1.7,3.2
				c0.9,4.3,2.1,8.7,3.6,12.8c0.4,1,3.6,2.2,4.1,1.8C1085.3,294.6,1090.8,288.9,1095.7,284z M1021.2,330.9c-4.3-3.6-5.9-5-7.5-6.4
				c-2.9,3.7-5.9,7.4-8.6,11.2c-0.1,0.2,2.7,3.2,3.1,3C1011.9,336.8,1015.5,334.4,1021.2,330.9z"/>
			<path d="M1142.3,727.9c0,31.8,0,63.5,0,95.3c0,4.2,0.7,8.6-0.1,12.7c-0.8,3.8-2.5,8.2-5.3,10.5c-24.7,20.5-49.5,40.8-74.7,60.7
				c-17.1,13.5-35,26-52.5,38.9c-4.5,3.3-9.2,6.6-13.4,10.3c-9.3,8.1-11.8,8.1-19.1-1.3c-2.8-3.5-5.1-7.4-8.2-10.6
				c-4.6-4.7-2.6-7.9,1.6-11c17.8-13.4,35.8-26.5,53.3-40.2c23.4-18.4,45.1-39.1,69.8-55.4c15.8-10.4,17.8-23.3,18-38.9
				c0.5-31.3,1.3-62.5,1.3-93.8c0-13.4-1.5-26.9-2.5-40.3c-0.4-5.7,2.1-7.9,7.6-7.7c31.4,1.1,22,2.2,24,28.9c0.5,6.9,0,14,0,21
				c0,7,0,14,0,21C1142.2,727.9,1142.2,727.9,1142.3,727.9z"/>
			<path d="M599.2,650.8c12.5-0.6,11.6-0.2,10.8,13.7c-1.6,27.2-2.2,54.4-2.1,81.7c0.1,28.1,1.6,56.1,2.5,84.2
				c0.2,5.9,1.9,10.2,7.8,13.6c34.5,20,68.7,40.5,103.1,60.7c9.9,5.9,20.1,11.3,30,17.1c12.4,7.3,13,11,4.2,22.6
				c-6.1,8.1-15.4,12-20.2,8.3c-5.6-4.2-10.7-9.1-16.6-12.7c-37.3-22.1-74.6-44-112.1-65.8c-7.4-4.3-15.6-7.4-23.1-11.6
				c-2.1-1.2-4.3-4.4-4.3-6.7c0-30.1,0.8-60.1,0.7-90.2c0-20.7-1.5-41.5-1.3-62.2c0.2-15.5,1.6-31.1,3.6-46.5c0.3-2.5,6.3-4.5,10-6
				C594.3,650.3,596.9,650.9,599.2,650.8z"/>
			<path d="M739.2,411.7c-2.9,27.7-6.9,52.4-7.6,77.3c-0.9,30.5,3.2,60.3,26.5,83.5c10.6,10.6,21.7,20.7,31.8,31.7
				c18.3,19.9,37.4,39.8,45.4,66.4c3.1,10.5,2.5,22.2,3,33.4c0.1,1.9-3,5.8-4,5.6c-2.5-0.6-5.5-2.3-6.8-4.5
				c-9.1-15.3-16.7-31.5-27-45.9c-10.3-14.4-22.9-27.2-34.7-40.3c-10.1-11.2-20.9-21.6-30.8-33c-14.1-16.3-19.8-36.5-22-57.3
				c-2.3-21.8-3.4-43.9-3.2-65.8c0.2-21.5,5.5-42.4,14.3-62.2c0.9-1.9,3.9-4.4,5.5-4.1c2.5,0.5,5.7,2.5,6.8,4.8
				C738.3,405.2,738.8,409.9,739.2,411.7z"/>
			<path d="M642.9,401.9c-14-5.1-30.1-9.2-44.5-16.5c-16.4-8.4-32.5-18.3-46.7-30c-24.2-19.8-42-44.7-52.9-74.4
				c-3-8.3-8.2-15.8-12.3-23.7c-0.6-1.2-0.7-2.6-1.1-3.9c2-0.4,4.6-1.8,5.9-1c9,5.3,19.1,9.7,26.4,16.9
				c11.4,11.3,21.3,24.2,30.9,37.1c9.5,12.6,17.5,26.3,27.1,38.8c3.6,4.8,9.5,8.1,14.9,11.2c16.2,9.1,33.8,13.2,52.5,13.7
				c15,0.5,30.1,5.1,44.7-1.8c7.9-3.8,15.5-8.9,23.8-11.1c5-1.3,12,0.5,16.5,3.4c5.4,3.5,4.5,9.9,0.9,15.1c-0.8,1.1-2,2.2-3.3,2.7
				c-15.3,5.3-30.5,10.9-46.1,15.5C668.4,396.9,656.7,398.8,642.9,401.9z"/>
			<path d="M885.2,581.4c-25.5-2.5-49.9-1.1-71.2-14.1c-8.7-5.3-16.2-12.6-24.3-18.9c-1.3-1-2.9-1.8-4.4-2.7
				c-0.1,1.8-0.7,3.8-0.2,5.4c2.5,8.2,5.5,16.3,8,24.4c0.4,1.3-0.5,3-0.8,4.5c-1.3-0.7-3.2-1.1-3.8-2.2c-4.2-8.8-8.6-17.5-12.2-26.5
				c-4.3-10.7-7.1-22.1-12.1-32.4c-12-24.6-13.6-50.2-10.2-76.7c2-15.2,1.9-30.2-4.3-44.6c-0.8-2-2.2-3.7-3.1-5.7
				c-0.7-1.5-1-3.1-1.6-4.7c2,0.2,4.4-0.3,5.8,0.7c11.8,8.6,16.6,21.4,19.3,35c5.1,25.5,8.2,51.6,15.3,76.6
				c5.6,19.7,18.3,36.3,37.9,45.4c11.9,5.5,24.1,5.5,37,2.1c7-1.9,15-0.4,22.5-0.2c0.8,0,1.5,1.5,2.2,2.3c-1.2,1-2.2,2.4-3.6,2.9
				c-3.7,1.4-7.5,2.3-11.1,3.8c-0.4,0.1-0.1,3.7,0.5,3.9c10.2,3.9,20.6,7.6,31,11c1.6,0.5,3.7-0.6,5.4-0.2c1.9,0.5,3.6,1.8,5.4,2.8
				c-1.3,1.6-2.4,4.2-4,4.5C900.3,579.4,891.8,580.4,885.2,581.4z"/>
			<path d="M881.8,1047.8c-4.9-3.1-8.1-5.1-11.2-7c-4.5-2.8-8.9-5.8-13.5-8.4c-21.2-12.2-42.4-24.4-63.8-36.3
				c-7.9-4.4-8.3-6.5-1.2-12.2c5.3-4.3,9.7-9.6,15.2-13.5c2.7-1.9,7.6-3.5,10.2-2.3c16.8,7.8,33.4,16.3,49.9,24.9
				c11.9,6.2,15.3,5.4,26.9-3.9c9.5-7.7,19.8-14.5,30.1-21.1c1.8-1.1,6.3-0.6,7.8,0.9c5.7,5.7,10.9,11.9,15.7,18.4
				c1,1.4,0.7,5.5-0.6,6.6c-15.9,13.5-32.1,26.8-48.3,40.1C893.4,1038.2,887.9,1042.7,881.8,1047.8z"/>
			<path d="M737.9,161.3c-1.8,8.5-3.4,15-4.5,21.7c-2.9,17.1,1.8,30.7,16.3,42c6.2,4.9,9.4,14.4,12.5,22.3
				c1.9,4.9-10,14.9-16.1,13.3c-7.7-2.1-15.6-4.7-22.5-8.7c-10.1-5.9-12.7-17.3-13.1-27.4c-0.6-14.3,1.1-28.9,3.9-43
				c5-25.1,20.5-43.8,39.8-59.7c1-0.8,3.8-1.2,4.4-0.5c1.1,1.3,1.7,3.4,1.8,5.2c0.8,11.7,0.3,23.5,2.4,34.9
				c1.3,6.8,6.7,11.4,15.4,13.2c8.6,1.8,17.7,6.9,23.9,13.1c3.6,3.6,4.1,12.9,2.5,18.7c-2,7.2-9.8,8.3-17,8.3
				c-21.4,0-32.4-13.4-40.4-30.8C744.1,177.3,741.6,170.5,737.9,161.3z"/>
			<path d="M868.5,741.2c5.9-14.5,10.7-29.6,17.9-43.3c8.9-17,15.5-33.9,18.1-53.2c3.4-26,17.8-46.2,40.2-61
				c13-8.7,24.5-19.6,36.9-29.2c2.3-1.7,5.8-1.8,8.7-2.7c0.2,2.4,1.2,5.1,0.5,7.3c-6.3,19-19.7,33.5-31.9,48.8
				c-11.3,14.2-24.2,27.7-32.7,43.5c-7.6,14-10.5,30.7-14.9,46.3c-5.8,20.6-11.3,41.3-16.6,62.1c-1.4,5.4-1.6,11.2-2.7,16.7
				c-0.3,1.7-1.7,3.8-3.2,4.3c-1.1,0.4-3.4-1-4.4-2.3c-8.5-10.5-13.6-22.4-13.5-36.2C870.2,741.8,869.3,741.5,868.5,741.2z"/>
			<path d="M527.2,208.1c10.2,1.5,20.6,1.8,30.4,4.7c17.6,5.2,34.8,2.8,51.4-2.2c17.7-5.4,33.5-1.2,49.1,6
				c14.3,6.6,25.4,17,35.1,29.5c6.1,7.9,14.6,14,21.7,21.1c1.7,1.7,3.4,4.4,3.2,6.5c-0.2,1.8-2.8,4.3-4.8,4.7
				c-11.6,2.8-22,0.3-30.9-8c-11.2-10.4-21.9-21.4-33.8-30.8c-13.6-10.7-29.8-12.1-46.5-9.3c-21.3,3.6-42.5,6.3-64.4,3.8
				c-11.9-1.4-24.3,1-36.5,2c-1.8,0.1-3.4,1.9-5.2,2.7c-1.8,0.9-3.7,1.6-5.6,2.3c-0.5-2.3-1.8-4.8-1.2-6.8
				c4.5-15.9,13.8-23.3,30.3-24.8c2.5-0.2,5-0.4,7.5-0.6C527.1,208.8,527.1,208.4,527.2,208.1z"/>
			<path d="M878.8,193.1c8.2,3.1,16.6,6.7,25.2,9.4c5.4,1.7,11.2,2.6,16.8,2.6c6.4,0,12.9-0.7,19.1-2.2c15.5-3.8,27.7,2.9,40.3,10.3
				c6,3.5,13.1,5.2,19.6,7.9c1.6,0.7,2.8,2.1,4.2,3.2c-1.2,1.6-2.2,4.1-3.8,4.5c-19.5,5.7-36.5-0.2-53.3-10.1
				c-6.2-3.7-14.5-3.8-21.9-5.6c-0.5,3.5-2.3,7.6-1.3,10.5c1.7,4.5,5.7,8.1,8.1,12.4c1.2,2,1.5,4.8,1.3,7.2
				c-0.2,2.3-1.4,4.5-2.2,6.7c-2.1-1.1-4.6-1.7-6.2-3.3c-6-6-11.2-12.8-17.6-18.3c-13.4-11.7-28.8-21.8-46.8-16.8
				c-14.2,3.9-27,12.9-40.1,20.2c-20.6,11.5-29.1,31.9-37,52.4c-0.1,0.3-0.1,0.7-0.3,0.9c-2.7,3-5.5,6.1-8.2,9.1
				c-0.2-3.4-0.7-6.8-0.5-10.2c1.1-20.4,5.9-39.5,18.5-56.1c11-14.6,27.1-20.4,43.7-24.9C849.9,199.3,863.6,196.6,878.8,193.1z"/>
			<path d="M1073.8,359.7c-0.7-11.7,10.9-22.8,24.7-25.5c11.7-2.3,23.1-5.8,34.8-8.1c7.5-1.5,15.4-2.6,22.9-2.2
				c17.3,1.1,34.8,2.1,51.8,5.4c10.6,2,20.2,8.9,30.8,12.1c5.8,1.7,12.5,0.2,18.8,0.4c2.2,0,4.3,0.7,6.4,1.1c-1,2.8-1.2,7-3.2,8.3
				c-17,10.7-34.9,5.5-52.7,2c-19.3-3.8-38.4-9.1-57.8-11c-17.6-1.8-32.8,7.3-47.5,16.5c-6,3.8-13,6.5-19.9,8.3
				C1077.7,368.3,1072.9,366.1,1073.8,359.7z"/>
			<path d="M905.2,489.5c6.4,7.1,11,13.8,17.1,18.4c4.8,3.7,11.7,7,17.4,6.6c8.1-0.6,16.4-3.9,23.7-7.7c9.3-4.9,18.6-3.2,27.6-1.3
				c10.6,2.3,20,1.3,28.9-4.6c1.6-1.1,2.2-3.8,3.8-4.9c2.8-1.9,6.1-3,9.2-4.5c0.5,2.8,1.8,5.8,1.3,8.4c-1.1,5.6-2.6,11.3-4.8,16.6
				c-6.8,16.5-29.9,25.1-46,17.2c-8.5-4.1-16.9-4.9-25.4-0.5c-18.6,9.5-31.3,0.6-41.2-13.4c-4.9-6.9-7.7-15.4-11.1-23.2
				C905,494.9,905.4,492.7,905.2,489.5z"/>
			<path d="M650.8,329.5c-12.9-1.7-24.1-4.9-34.6-13.2c-14.5-11.4-30.9-20.4-45.7-31.5c-5.7-4.3-9.2-11.7-13.4-17.8
				c-0.6-0.9-0.3-3.4,0.5-4c0.9-0.7,3.4-0.7,4.1,0.1c9.9,11.2,25.1,10.5,36.9,17c12.4,6.9,23.4,16.3,35.7,23.3
				c11.4,6.6,23.8,11.5,35.7,17.2c1.5,0.7,2.8,1.9,4.1,2.9c-1.4,0.7-2.8,1.8-4.3,2.1C663.5,327,657.1,328.2,650.8,329.5z"/>
			<path d="M800,319.4c-3-1.8-6-3.5-8.9-5.2c3-0.7,6.1-1.3,9.1-2.2c1.6-0.5,3.1-1.7,4.6-2.5c-1-1.3-2.1-2.5-2.8-3.9
				c-0.8-1.5-1.3-3.1-1.9-4.7c1.5,0.3,3.1,0.9,4.6,1c3.6,0.1,7.3,0,13.5,0c-3.2-4.1-4.5-5.3-5.1-6.7c-0.5-1-0.1-2.4-0.1-3.6
				c1.1,0.1,2.2,0.3,3.2,0.3c7,0.3,14.1,0.8,21.1,0.7c0.5,0,0.9-3.5,1.6-5.2c0.9-2.1,2.1-4.1,3.2-6.1c0.8,1.9,1.3,3.9,2.4,5.5
				c1.7,2.5,3.5,6.1,6,6.8c4.8,1.3,11.4,7.7,14.4-2.5c1.5,0.7,3.9,1.1,4.4,2.2c2.7,6.3,4.9,12.8,7.3,19.2c0.3,0.9,1.1,1.9,1.1,2.8
				c-0.1,3.3-0.4,6.7-0.6,10c-1.5-2.5-2.5-5.4-4.4-7.4c-5.2-5.7-10.7-11.1-16.4-16.3c-0.6-0.5-4.3,1.2-4.3,1.4c0.9,4.1,1,9.1,3.5,12
				c2.8,3.4,7.9,4.7,11.6,7.4c1.1,0.8,1.1,3.3,1.6,5c-1.7-0.1-3.9,0.5-4.9-0.4c-12.5-10.8-27-7.6-41-5.7c-6.5,0.8-12.8,3.5-19.2,5.2
				c-1.2,0.3-2.5,0-3.8,0C799.8,323.9,799.9,321.5,800,319.4z M836.5,306.3c-2.8-3.2-4.3-4.9-5.9-6.7c-2.4,2.6-5.1,5.1-7,8
				c-0.4,0.6,2.9,4.7,3.3,4.6C829.8,310.8,832.5,308.8,836.5,306.3z"/>
			<path d="M1113.5,384.2c-7.7,2.8-15.4,5.7-23.2,8.4c-1.2,0.4-3.3,0.7-3.9,0c-0.9-1-1.5-3-1.2-4.4c2.2-10.4,18.3-22.2,28.8-22.8
				c18.3-1,36.6-2.7,54.8-4.6c4.1-0.4,7.8-3.4,11.9-4.9c1.3-0.5,3,0.3,4.5,0.5c-0.3,1.6-0.1,3.8-1.1,4.8
				c-12.6,12.5-27.3,21.1-45.2,23.2c-8.2,1-16.4,1.7-24.6,2.5C1114,385.9,1113.7,385.1,1113.5,384.2z"/>
			<path d="M951.5,420.7c-13.3-0.5-20.9-8.3-21.7-20.1c-0.6-8-2.1-16-3-24c-0.1-1,1.9-3.2,2.7-3.1c6.9,1.1,13.6,2.9,20.5,3.9
				c8.6,1.3,18.2,10,19.4,18.4c1.4,9.4-4.1,20.3-12.1,23.5C955.1,420.2,952.5,420.5,951.5,420.7z"/>
			<path d="M603.9,413.9c0.5,8.6,1.2,17.2,1.6,25.7c0.1,1.5-0.9,4.3-1.5,4.3c-7.3,0.2-14.7,0.7-21.8-0.5c-1.4-0.2-2.4-7.2-2.4-11
				c-0.3-13.5,0.1-27.1-0.3-40.6c-0.2-7.2,3.3-7,8.1-5.2c4.3,1.6,8.6,3.5,12.5,5.8c1.5,0.9,2.8,3.3,3,5.1c0.7,5.4,0.8,10.9,1.2,16.4
				C604.1,413.9,604,413.9,603.9,413.9z"/>
			<path d="M1009.5,418.7c-0.7-11.8,7-22.1,14-32.6c1-1.5,4.5-1.8,6.8-1.6c0.7,0,0.9,3.6,1.7,5.4c2.6,5.9,5.3,11.7,8,17.6
				c4.2,9.5-0.2,28.9-14.8,29.7C1016,437.8,1009.9,431.2,1009.5,418.7z"/>
			<path d="M808.6,262.2c6.4-5.1,12.2-11.1,19.2-15c9.8-5.5,20.7-12.6,32-5.3c6.5,4.2,10.9,11.8,16.2,17.9
				c3.6,4.1,7.1,8.2,10.5,12.4c1.2,1.5,1.7,3.6,2.5,5.4c-2,0.5-4.5,2.1-5.8,1.4c-6.7-3.5-14-6.7-19.3-11.8
				c-16.7-16-30.1-14.4-49.2-3.7c-1.2,0.7-2.5,1.1-3.8,1.7C810.1,264.1,809.4,263.2,808.6,262.2z"/>
			<path d="M725.1,265.2c4.4,10.3,12.3,13.3,21.3,16.2c20.2,6.5,28.7,34.8,15.7,50.8c-1.5,1.8-5.1,3.7-7,3.1
				c-2.3-0.7-4.3-3.6-5.7-6.1c-0.9-1.7-0.9-4.3-0.6-6.4c2.9-17.9-5.6-31-17.5-42.9c-2.6-2.7-4.7-6-6.4-9.3
				C724.3,269.2,725.1,267,725.1,265.2z"/>
			<path d="M1015.9,272.6c9.4-0.9,15.3,3.9,20.7,10.8c3.8,4.9,9,8.6,13.2,13.2c1.2,1.3,1.4,3.6,2,5.4c-2,0.2-4.3,1.3-5.8,0.5
				c-4.5-2.4-8.8-5.3-13-8.2c-12-8.1-24-5.9-35.7,0.3c-5.1,2.7-9.8,3.2-12.3-1.9c-1-2.1,1.4-6.7,3.4-9.2
				C995.4,274.6,1005.6,273,1015.9,272.6z"/>
			<path d="M775.8,402.2c0-11.6,0.5-23.2-0.2-34.8c-0.3-5.1-3.5-9.9-4.8-14.9c-0.5-1.8,0.6-4.1,0.9-6.1c1.5,1.4,3.2,2.5,4.3,4.2
				c4.5,6.4,9.5,12.6,13,19.6c7.7,15.4,3.6,30.4-3.2,44.9c-1,2.1-4.8,2.9-7.3,4.3c-1.2-2.5-3-4.9-3.5-7.6c-0.6-3-0.1-6.3-0.1-9.4
				C775.1,402.2,775.4,402.2,775.8,402.2z"/>
			<path d="M925.8,356c0.7,0.8,3.6,2.8,3.3,3.8c-0.8,2.9-2.4,6.3-4.7,8.1c-9.3,7.5-19,14.6-28.6,21.7c-5,3.7-10.1,7.4-15.5,10.3
				c-1.6,0.9-4.7-1-7.1-1.6c1.4-2.1,2.5-4.5,4.2-6.4c4.5-5.2,9.9-9.7,13.8-15.2C900.6,363.6,912.9,355.5,925.8,356z"/>
			<path class="st0" d="M1362.6,818.6c14.6-6.3,26.4-11.9,38.5-16.6c41.4-16,83-31.5,124.2-48c3.6-1.5,5.8-8.3,7.3-13.1
				c5.4-16.4,5.3-17.1,23.1-13c27.8,6.4,55.4,13.8,84.9,21.2c-3.8,3.2-6.6,5.4-9.3,7.7c-12.5,10.5-24.6,21.5-37.6,31.4
				c-10.2,7.8-21.6,14.2-32.1,21.7c-1.8,1.3-3.2,6.2-2.2,8c9.8,17.5,20.1,34.7,30.3,52.1c0.9,1.6,1.6,3.4,3.1,6.9
				C1516,857.5,1440.9,838.4,1362.6,818.6z"/>
			<path class="st0" d="M1492.2,739.4c-10.3,5.1-18.3,10.1-27.1,13.3c-24.9,9.3-50.3,17.4-75.2,26.8c-15.4,5.8-30.1,13.2-45.2,19.9
				c-2,0.9-4,1.6-6.1,2.1c-3.6,0.9-7.2,1.6-10.9,2.4c0.1-3.9-0.2-7.9,0.5-11.7c5.1-28.6,10.2-57.2,15.7-85.7
				c0.4-2.1,3.9-5.4,5.6-5.2c13.8,1.6,27.9,2.6,41.2,6.3c30.4,8.4,60.5,18.2,90.6,27.6C1484.3,735.9,1487,737.2,1492.2,739.4z"/>
			<path class="st0" d="M164.9,859.7c8.3-12.7,15.8-24.4,23.4-36c7.6-11.5,15.4-22.8,22.7-34.5c1-1.6,0.1-6.2-1.5-7.3
				c-18-13.3-36.4-26.1-54.6-39.3c-3.7-2.7-6.8-6.2-10.8-9.9c2.4-1.1,4.1-2.1,5.8-2.6c25.6-7.8,51.2-15.5,76.9-23
				c1.9-0.5,6.5,1.6,6.5,2.7c1.1,19.4,15.7,24.1,30.4,29.4c27.6,9.8,54.9,20.2,82.3,30.3c24.3,9,48.7,17.8,73,26.8
				c1.3,0.5,2.5,1.3,4.1,2.1C337.2,818.8,251.8,839,164.9,859.7z"/>
			<path class="st0" d="M293.6,716.2c7.3-2,14.7-4.2,22.1-6.1c35.5-9.2,71-18.4,106.7-27.2c2-0.5,6.4,1.7,6.8,3.4
				c8.1,31.2,15.7,62.5,23.5,93.7c0.3,1.4,0.3,2.8,0.4,5C399.7,762,347,739.3,293.6,716.2z"/>
			<path class="st0" d="M714.8,680.7c1.7-3.6,2.4-8.2,4.8-9.6c4.5-2.4,9.7-6.9,15.3-1.3c18.9,19.1,38,38,56.6,57.4
				c5.7,5.9,4.5,13.6,1.7,20.7c-2.4,6.2-10.1,7.6-14.9,2.8c-10.2-10.2-20.3-20.3-30.3-30.6c-9.3-9.6-18.6-19.2-27.6-29.1
				C718,688.2,716.8,684.4,714.8,680.7z"/>
			<path class="st0" d="M770.5,778.2c-2.3,2.9-3.7,6.5-6.1,7.3c-3.2,1.1-8.5,1.6-10.6-0.3c-20.1-17.8-40.1-35.8-59.2-54.6
				c-5.1-5-7.7-13-9.9-20.2c-0.9-2.9,1.6-7.5,3.9-10.4c0.8-1.1,6-0.2,8,1.4c10,8.1,20,16.4,29.4,25.3c12.4,11.7,24.6,23.7,36.3,36.2
				C765.8,766.8,767.5,772.6,770.5,778.2z"/>
			<path class="st0" d="M736.4,807.7c-1.3,2.4-2.1,5.8-3.4,6c-2.6,0.4-6.2,0-8.2-1.6c-10.9-8.6-22-17.1-31.9-26.7
				c-12.9-12.4-24.8-25.8-37.1-38.9c-4.7-5.1-5.1-11.4,1-14.5c4.1-2.1,11.7-2.5,15.2,0c8.9,6.2,17.1,13.8,24.4,21.9
				c12.2,13.5,23.6,27.7,34.9,41.9C733.9,798.9,734.7,803.5,736.4,807.7z"/>
			<path class="st0" d="M1032.5,335c1.8-8.4,8.9-10.8,15.7-6.8c2.7,1.6,5.9,2.7,7.8,5c1.1,1.3,0.8,6-0.1,6.4
				c-4.3,1.9-9.3,4.4-13.6,3.7C1038.7,342.5,1035.7,337.9,1032.5,335z"/>
			<path class="st0" d="M1095.7,284c-4.9,4.9-10.4,10.6-16.1,16c-0.5,0.4-3.7-0.7-4.1-1.8c-1.6-4.1-2.7-8.5-3.6-12.8
				c-0.2-0.9,1.2-3.2,1.7-3.2C1080.5,282.6,1087.4,283.3,1095.7,284z"/>
			<path class="st0" d="M1021.2,330.9c-5.7,3.5-9.2,5.9-13,7.8c-0.5,0.2-3.3-2.8-3.1-3c2.7-3.9,5.7-7.5,8.6-11.2
				C1015.3,325.9,1016.9,327.3,1021.2,330.9z"/>
			<path class="st0" d="M836.5,306.3c-4,2.6-6.7,4.5-9.6,5.9c-0.4,0.2-3.7-3.9-3.3-4.6c1.9-3,4.6-5.4,7-8
				C832.1,301.3,833.7,303.1,836.5,306.3z"/>
		</g>
	</g>
</g>
<g id="GRILL_________SEKTION_xA0_Image_1_">
	<g>
		<g>
			<path d="M1368.3,639.1c-15.3-1.4-29.9-6.5-45.7-10c-0.8-0.5-0.3-2-0.2-3.8c2.6,0.3,4.9,0.1,7.3-0.5c7.5-1.8,10.7-4.3,11.4-11.6
				c0.8-8,3-16,1.3-24.1c-0.4-2.1,0.6-3.9,1-5.8c2.1-9.9-0.4-19.4-1.8-29.1c-0.5-3.5-2.2-6-6.5-6.5c-0.2,9.2-0.2,18-1.5,26.5
				c-1.5,0.9-2.8,0.7-4-0.6c-0.5-4.5-3-8.8-2.3-14.1c-4.8-5.5-9-11.7-17.6-14.5c0.2,24.4-3.1,48-0.7,71.6c1.2,5.9,10.1,2.9,11,9.4
				c-5.7,1.6-43-6-45.5-9.1c-7.6,3.6-15.2,1.5-22.6-0.5c-5.7-1.5-11.4-2.1-17.1-2.7c-4.1-0.4-7.2-1.5-6.5-6.3c1.1-2,3.6-0.3,4.4-2.4
				c0-6.5-4.8-21.8-10.1-32.2c-2,0.1-3.7,1-5.6,2.7c1.7,9.7-2.9,20.1,2.6,30.3c1.2,0.7,2.7,2.4,4.9,2.7c0.8,3.5-1.3,3.4-3.7,3.5
				c-5.1,0.3-9.8-1.4-14.7-2c-7.2-0.9-14.8,0.1-21.7-2.8c-0.4-2.5,2-2.6,2.7-4.1c1.7-0.1,3.3-0.2,5.1-0.2c1.1-0.8,2.3-1.6,3.4-2.3
				c1.8-6.4,3.3-12.8,3.4-19.3c0.1-15.6,0.3-31.2,0.1-46.8c0-4.2-0.9-8.5-6.4-9.4c-2.2-0.4-4.4-1.5-6.2-2.1c-1.4-1.8-1.2-3.5-1-5.2
				c2.7-2.4,5.6-1.1,8.4-0.5c12.4,2.5,25.3,2,37.5,5.7c9.5,2.9,19.5,3.5,29.3,5c2.5,0.4,4.7,0.9,5.7,3.8c4.9-3.8,9.7-0.2,14.4,0.3
				c9.6,0.9,19.2,2.5,28.4,5.7c5.1,1.7,10.7,1.9,15.8,3.3c10.7,3.1,21.5,5.5,32.5,7.2c6.6,1,12.8,3.2,19.2,5.1c0,1.2,0,2.4,0,3.9
				c-4.4-0.2-8.6,0.3-14.2,2.7c-3.7,22.9-6.3,46.8-3.3,70.2C1367.2,635.1,1367.2,635.1,1368.3,639.1z M1238.5,556.8
				c1.7,4.4,3.5,8.3,4.8,12.4c3.9,12.4,8.3,24.5,13.5,36.4c1.9,4.2,5.1,7.6,8.1,9c9,1.4,16.4,1.6,22.4-4.7c2.2-22.3,0.7-44.8,2-67.5
				c-8.3,0.8-14,5.5-15.7,12.1c-1.2,4.7-2.3,9.3-7.2,13.5c-3.9-5.4-2.2-11.4-1.8-16.8c0.4-5.9-1-11.6,1.1-18.7
				C1252.5,537.6,1247.6,549.1,1238.5,556.8z M1217.8,558.7c4.2,0.2,20.1-13.9,26.3-23c-2.3-6.5-14.3-9.9-25-6.7
				C1216.5,538.7,1218.5,548.8,1217.8,558.7z"/>
			<path d="M431.9,582.4c13,1.5,11.7,11.9,13.2,20.2c0.8,4.4,0.8,8.8,5,10.9c4.7,0.1,3.2-6.4,7.7-6.2c0.4,10.3-5.6,16.4-17.9,18.2
				c-8.3-5.6-13.6-13.1-14.8-23.5c-0.6-4.9-3.6-8.7-7.8-12.1c-4,0.7-8.5,1-12.6,2.4c-2.2,0.7-4.5,2.8-4.9,5.8
				c-1.1,9.3,0.3,18.4,2.4,27.3c6.1,2.3,11.6-1.3,17.1,0c0.8,1,0.6,1.9,0.1,3.2c-19,3.2-37.4,9.9-57.5,13.3
				c1.1-8.5,10.3-6.5,14.5-13.6c-0.8-20.8-1.6-43.7-2.7-66.6c-0.1-1.9-1.8-3.8-2.5-5.2c-3.9-1.6-7.8,0.8-11.9-1.6
				c14.6-5.3,28.7-8.7,42.5-13c11.6-3.6,23.3-2.9,34.9-1.4c6.4,0.8,10.6,6.3,12.7,11.7c2.4,6.1,0.1,12.3-4.3,17.6
				C441.4,574.4,436.7,578,431.9,582.4z M396,553.4c0.4,7.7,0.7,15.2,1.1,22.6c0.4,7.9,4.7,10.7,12.5,8.3c4.3-1.3,8.5-2.7,12.9-4.1
				c7.7-9.5,6.8-19.6,2.7-29.6C415.3,543.3,404.3,547.3,396,553.4z"/>
			<path d="M358.2,595.2c1,1.5,2,2.8,1.5,4.7c-0.1,0.2-0.3,0.7-0.5,0.8c-10.7,3.9-12.9,8.3-10,20.3c1.6,6.7,2.1,13.6,4.5,20.1
				c0.4,1.2,0.1,2.6,0.1,3.8c-1.1,1.8-2.7,2.7-4.9,3.1c-2.7-5.3-2.9-11.2-4.3-16.9c-2.9,0.2-3.1,2.6-3.7,4.5
				c-5,14.4-18.9,23.5-34,24.5c-22.1,1.5-36.7-15.3-41.1-32.4c-2.2-8.4-2.1-17.8,2.5-26.6c7.3-13.9,15.9-26.8,30.3-33.7
				c12.6-6,25.8-7.2,37.5,3.2c0.3,0.3,0.9,0.3,1.8,0.5c0-3.9,0-7.6,0-11.3c2-0.7,3.7-1.3,5.3-1.9c4.1,3.4,5.1,33.7,1.3,36.7
				c-2.2-0.4-2.8-2.3-3.4-3.9c-1.7-5.5-6.3-8.9-9.3-13.5c-1.2-1.9-3.3-1.3-4.9-1.8c-15.8-4.2-33,4.5-37.1,18.9
				c-4.9,17.2-3,33.6,7.5,48.5c3.6,5.1,11.4,6.7,18.8,3.7c9.1-3.7,14.3-8.8,14-20.5c-0.1-4.6,0-9.3,0-13.6c-5.4-4.3-10,0.3-14.9,0.4
				c-1.7-0.9-0.8-3-2.3-3.9C316,606.6,354.2,595.1,358.2,595.2z"/>
			<path d="M1415.8,652.5c1.7-3,3.7-4,6.1-4.3c6.3-0.8,10-4,11.4-10.3c1.6-6.8,4.8-13.4,5.6-20.3c1.2-9.9,3.8-19.5,4.3-29.4
				c0.4-7.5-4-11.8-9.2-15.8c-0.9-0.7-2.3-0.7-2.8-2.2c0.1-1.2,0.7-2.2,2.2-3.3c9.9,0.9,19.4,4.8,29.4,7.1
				c9.2,19.9,18.3,39.7,27.4,59.4c0.5,0,1-0.1,1.4-0.1c3.3-11.5,5.4-23.2,7.2-35.1c-2-6.6-4.9-12.5-12.3-14.6
				c-0.6-1.5-0.3-2.7,0.2-3.8c13.5,0.7,25.5,6.7,38.3,9c0.8,1.7,0.4,3-1.2,4.2c-1.6,0.1-3.4,0.2-5.2,0.4c-7,0.8-10.4,5.4-11.4,12.4
				c-1.1,8.1-4,15.9-5,24c-1.6,13.3-4.6,26.4-6.5,39.7c-0.4,2.9-2.5,5-2.2,7.9c-3,0.2-4.3-1-5.8-3c-5.1-6.9-6.1-15.5-10.3-22.8
				c-7.5-12.9-13.5-26.5-18.9-40.4c-1.3-3.2-2.3-7.6-6.2-9.5c-5.9,7.6-11.4,44.1-7.7,51.5c1.3,0.7,2.7,1.5,4.3,2.4
				c1,2.2,2.3,4.3,1.1,7.9C1438.9,659.7,1427.6,656.2,1415.8,652.5z"/>
			<path d="M1106.4,599.3c-0.4-1.6,0.3-2,1-2.4c0.5-0.3,0.8-1,1.4-1.7c2.1,0,4.4,0,6.6,0c3.9-4.6,5.3-9.7,4.4-15.4
				c-0.9-5.8-0.7-11.5,0-17.3c0.7-6.2-1.4-12.6-0.6-18.9c1.2-9.3-0.2-18.4-1.1-25.8c-2.1-6-7.9-3.3-9.9-7.9
				c23.8,1,47.5,1.6,71.3,5.6c0,12.3,0,24.7,0,36.9c-1.8,1.3-3.2,1.1-4.7-0.2c-1.2-2.5-0.1-5.6-1.4-8.4c-2.6-5.8-4.1-12-7.1-17.6
				c-3.1-5.8-9.7-5.5-15.3-6.2c-2.6-0.4-5.3-0.1-8.1-0.1c-3.9,1.9-3.8,5.8-4,9.3c-0.3,4.6-0.1,9.3-0.1,14c0.1,7.2,2.2,9,9.5,8.1
				c5.2-3.2,7.1-8.7,9-14.4c0.4,0.2,0.8,0.4,1.2,0.5c0,13.1,0,26.2,0,40.7c-4.5-4.6-3.4-10.5-7-13.9c-3.1-3.4-7.1-2.5-10.9-2.3
				c-4.5,12-2.5,19.3,0,30.6c9.8,5.6,24.9,3.3,31.4-4.8c1.2-8.1,2.6-16.2,5.1-24.8c0.6-0.9,2-0.9,3.9-0.3c0.4,14.5-2,29-0.9,43.3
				c-2.4,1.9-4.9,1.3-7,1.3C1150.6,605.8,1128.8,600.5,1106.4,599.3z"/>
			<path d="M1048.9,542.5c-2.2-5.8-1.9-14-0.8-22.2c1.8-13,11.8-17.6,24.3-15.7c4.4,0.7,8.8,1.7,12.8,3.5c4.8,2.2,8.9-0.9,13.9-0.8
				c2.1,10.8-0.6,21.5,2.1,31.6c-3,1-4.7,0.8-5.3-1.2c-0.9-2.9-3.4-4.9-4.6-7.4c-3.5-7.2-9.4-10.9-16.5-13.7
				c-5.1-2-8.8,0.7-12.7,2.6c-3.3,13.3,3.4,14.7,15.6,19.9c9.2,3.9,18.2,7.8,24.6,16c4.7,6,5.7,19.4,1.7,26.8
				c-5.3,9.8-13.2,14.8-24.6,13.9c-2.2-0.2-4.4-0.4-6.5-0.1c-5.1,0.8-9.4-0.8-13.3-3.9c-1.7-1.3-3.4-2.9-5.9-1.5
				c-1.9,1.7-1.8,5.3-5.9,6.6c1.1-12-0.2-23.7,0.1-35.4c0.4-0.2,0.9-0.4,1.3-0.6c3.7,6.8,7.4,13.6,10.9,20.1
				c5.9,4.1,12.4,3.2,18.5,4c4.3,0.6,8.2,0.1,9.4-5.3c0.4-1.9,1.8-3.5,2.8-5.2c-2.6-7.1-8.9-10-14.8-13
				C1066.9,556.7,1056.4,553.6,1048.9,542.5z"/>
			<path d="M1363.1,609.1c0.3-13.8,0.9-26.3,7.7-37.4c6.9-11.4,17-16.8,30.2-15.3c10.6,1.1,20.1,4.7,26.6,14.1
				c3.4,4.9,5.2,10.4,6.2,15.9c2.6,14.1,0.9,28.3-4,41.5c-5.8,15.7-21.9,26.4-40.1,18.3c-1.6-0.7-3.3-0.2-4.8-0.8
				c-10.3-4.5-17.2-12-19.6-23C1364.3,617.6,1361.5,613,1363.1,609.1z M1419.2,595.5c-0.3-3.9,0.2-7-1.2-10.1
				c-1.3-2.9-1.3-6.4-2.5-9.4c-3.7-9.7-14-12.2-21.9-5.4c-3.9,3.4-6.7,7.8-8.6,12.4c-6.2,15.5-6.4,31.5-1.8,47.2
				c2.5,8.6,9.9,13.7,19.8,8.7c10.2-5.2,13-14.9,14.8-24.5C1418.9,608.1,1419,601.3,1419.2,595.5z"/>
			<path d="M599.3,560.7c1.4-0.6,2.3-0.8,3.5,0c0.1,10.7,1.6,21.6,1.2,32.5c-29.5,7.4-59.5,10.5-89.2,16.6c2.6-4.2,8.2-5,10.3-11.7
				c-1-21.5-2.1-44.9-3.1-67.5c-4.4-2.7-7.6-3.8-11.1-3.9c-1-1-1.5-2.2-1.7-4.1c16.3-1.8,31.9-7,48.3-7.7c0.5,1.7,0.6,2.4-1,3
				c-7.2,2.8-9.2,9.3-9,15.9c0.5,18.1,1.8,36.2,2.9,55.2c10.6,7,22.4,5.9,33.2,0.7C594.9,584.3,599,572.9,599.3,560.7z"/>
			<path d="M660.6,503.2c-3.6,2.4-7.4,4.7-10.9,7.4c-3.6,2.7-5.1,6.3-4.9,10.9c0.8,17.3,1.5,34.6,2.3,51.9c0.1,2.8,0.6,5.7,3.4,8.1
				c10.7-0.2,21.7-0.4,31.8-6.2c3.1-1.8,5.1-4.6,6.8-7.7c2.8-5.1,5.2-10.4,6.9-16c0.3-1,0.1-2.5,2.7-2.2c0.9,10.5,2,21.2,1.2,32.1
				c-29.8,4.7-59.2,7.4-89.6,11.4c-0.8-0.1-1.1-1.6-1.4-3.1c4.4-3.3,11-2.1,15.4-8.5c0.3-21.1-1.2-43.6-3-65.2
				c-5.2-7.2-12.8-5.5-18.9-8.2c19.2-4,38.8-3.8,58.1-6C660.5,502.3,660.6,502.7,660.6,503.2z"/>
			<path d="M456.7,534.5c14.4-4.7,29-5.6,42.6-10.4c1.1,1.5-0.1,2.7-0.5,2.9c-6.1,3.6-5.3,9.4-4.9,15c1.3,16.9,0.8,33.9,2.7,50.8
				c1.2,10.3,3.2,13.5,13.2,16.2c0.7,0.2,1.6,0.1,2.2,1.2c-17.8,3.9-35.3,7.8-53,11.7c-0.8-3.2,0.9-4.3,3-5.2
				c9.2-4,10.4-6.8,10.4-17.1c-0.1-17.5-1.4-34.9-2-52.4c-0.2-5.5-2.5-8.5-7.9-9.5C460.5,537.4,458.7,536.5,456.7,534.5z"/>
		</g>
	</g>
</g>
<g id="ITG_xA0_Image_1_">
	<g>
		<g>
			<path d="M829,145c3.1-0.1,6.2-0.6,9.4,0.5c2.2,0.8,4.4-1.1,6.8-0.6c8.2,1.6,16.5,0.2,24.8,0.1c5.1-0.1,10.3,0.1,15.7,0.4
				c4.4,6.1-0.7,12.1,0.8,18.7c-3.5-1.3-3.5-3.3-3.9-5.4c-0.9-5.1-4.1-8.6-9.2-12c1.6,11.7-0.6,22.3-0.1,32.9c2,1.7,4.8,1.5,6.9,3
				c-4.1,2.6-18.7,2.4-25-0.2c1.6-3.2,5-0.7,8-3.2c1.6-7.6,0.9-16.1,0.3-24.6c-0.4-2.1,1.3-4.2-0.2-6.5c-4.5,0-5.7,3.8-7.2,6.9
				c-0.8,1.6-1.1,3.4-1.6,5.2c-0.5,1.5-1.4,2.2-3.3,1.5c-1.6-4.5,0.3-9.3-0.7-14c-1.4-0.8-2.5-0.3-3.7,0.9
				c-0.9,10.3-1.7,20.9-0.4,31.3c2.3,1.2,4.7,0.6,6.3,2.4c-0.3,1.4-1.2,2-2.5,1.9c-6.4-0.8-12.8-1.4-19.3-1.3
				c-0.2,0-0.5-0.4-0.9-0.7c0.5-2.3,2.8-1.1,3.8-1.9c2.1-2.2,2.2-4.7,2.2-7.5c0.1-6.7,0.5-13.5,0.8-21c-0.2-0.6-0.7-2-1.2-3.3
				c-1.9-2.1-4.5-1.2-6.6-1.8C829,146.3,829,145.7,829,145z"/>
			<path d="M902,186c-1.7-1.4-4-1-5.9-2c-10.8-5.7-11.7-19.8-5.3-28.4c3.6-4.8,7.7-9.1,14.5-9.2c2.7,0,4.9,0.4,6.9,2.1
				c1.1,1,2.3,1.9,3.4,2.9c2.2-0.7,1.5-3.8,4.3-4.5c2.2,4.7-0.7,9.5,0.1,14c0.2,1.2-0.8,2.1-2.5,2.2c-2.2-6.3-4.2-13-12.2-14.7
				c-10.3,5-11.2,27.5-1.3,35.1c4.3-1.6,4.3-1.6,6.6-5.4c-0.3-3.4,0.3-7.1-1-10.4c-1.3-1.3-3.6,0.2-4.8-2.4
				c7.2-2.8,14.2-0.3,21.1-0.2c0.1,3.1-2.8,1.4-3.7,2.7c-0.8,1.4-1.5,2.9-2.2,4.2c-0.2,4.5,0.5,8.7-0.1,13.3
				c-2.5-0.6-2.9-3.3-5.9-3.8c-2.6,0.4-4.6,3.9-8,4.5C904.7,186,903.3,186,902,186z"/>
		</g>
	</g>
</g>
</svg>
